<svg width="71" height="79" viewBox="0 0 71 79" fill="none" xmlns="http://www.w3.org/2000/svg">
<path d="M63.8886 27.9846C64.7494 27.0617 65.6101 26.201 66.4605 25.4336C67.2901 25.8173 68.0782 26.3461 68.7938 27.0098C69.499 27.6735 70.0901 28.4201 70.536 29.2186C69.8308 30.1208 69.0427 31.0437 68.1819 31.9666C63.8886 36.5812 59.4605 39.4329 58.2679 38.3337C57.0857 37.2345 59.5953 32.5992 63.8886 27.9846Z" fill="#FFCF2D"/>
<path d="M33.753 64.527L32.3841 65.3774C27.4167 68.4572 17.7412 61.8309 10.7826 50.5796C3.81376 39.3282 2.19599 27.7244 7.15302 24.6445L8.56339 23.7734L16.953 48.4537L33.753 64.527Z" fill="#66B0F0"/>
<path d="M47.6487 77.8317L33.7524 64.5271L16.9421 48.4434L8.55246 23.7735L1.05469 1.7168L35.9717 29.8503L47.6487 77.8317Z" fill="#66B0F0"/>
<path fill-rule="evenodd" clip-rule="evenodd" d="M0.415527 0.802734L36.2494 29.675L48.2032 78.7936L33.5377 64.7527L16.6724 48.6164L8.25832 23.8745L0.415527 0.802734ZM1.69468 2.63242L8.84742 23.6741L17.2125 48.272L33.9679 64.3031L47.095 76.8712L35.6947 30.0271L1.69468 2.63242Z" fill="white"/>
<path fill-rule="evenodd" clip-rule="evenodd" d="M1.98461 0.529297L37.4217 28.439L49.0411 76.442L48.4363 76.5884L36.8676 28.7946L1.59961 1.01808L1.98461 0.529297Z" fill="#9A3B82"/>
<path fill-rule="evenodd" clip-rule="evenodd" d="M42.1367 40.2727C41.0866 37.0066 37.6913 35.0966 34.3452 35.9083L34.3449 35.9084C30.8203 36.7598 28.6516 40.3143 29.5032 43.8392L28.8984 43.9853C27.9662 40.1269 30.3397 36.2359 34.1987 35.3036C37.8624 34.4149 41.5805 36.5069 42.7296 40.0839L42.7301 40.0855L45.6446 49.4925L45.6447 49.4928C47.1562 54.388 54.2091 54.0102 55.1947 48.9752L56.8746 40.3375L57.4854 40.4562L55.8054 49.0943L55.8053 49.0947C54.6961 54.7613 46.7537 55.1925 45.0502 49.6766M45.0502 49.6763L42.1372 40.2742C42.137 40.2737 42.1368 40.2732 42.1367 40.2727" fill="#FFCF2D"/>
<path fill-rule="evenodd" clip-rule="evenodd" d="M57.5732 38.4386C57.0521 38.4386 56.6295 38.8611 56.6295 39.3823C56.6295 39.9034 57.0521 40.3259 57.5732 40.3259C58.0944 40.3259 58.5169 39.9034 58.5169 39.3823C58.5169 38.8611 58.0944 38.4386 57.5732 38.4386ZM56.0073 39.3823C56.0073 38.5175 56.7084 37.8164 57.5732 37.8164C58.4381 37.8164 59.1392 38.5175 59.1392 39.3823C59.1392 40.247 58.4381 40.9481 57.5732 40.9481C56.7084 40.9481 56.0073 40.247 56.0073 39.3823Z" fill="#66B0F0"/>
</svg>
