<svg width="154" height="264" viewBox="0 0 154 264" fill="none" xmlns="http://www.w3.org/2000/svg">
<path d="M152.623 1.42383V262.794H137.864V213.043C137.864 208.407 134.094 204.639 129.457 204.639H23.8121C19.1746 204.639 15.4054 208.407 15.4054 213.043V262.794H0.645996V1.42383H152.623Z" fill="white"/>
<path d="M153.258 263.429H137.228V213.044C137.228 208.767 133.734 205.274 129.457 205.274H23.8121C19.5346 205.274 16.0407 208.767 16.0407 213.044V263.429H0.0107422V0.789062H153.258V263.429ZM138.499 262.159H151.988V2.05929H1.28128V262.159H14.7701V213.044C14.7701 208.069 18.8358 204.004 23.8121 204.004H129.457C134.433 204.004 138.499 208.069 138.499 213.044V262.159Z" fill="#3FB1B5"/>
<path d="M153.068 1.42383V70.7781L0.645996 196.255L0.667192 1.42383H153.068Z" fill="#D0F0E4"/>
<path d="M129.901 77.3204H23.3883C18.645 77.3204 14.791 73.4674 14.791 68.7253V21.3247C14.791 16.5825 18.645 12.7295 23.3883 12.7295H129.901C134.645 12.7295 138.499 16.5825 138.499 21.3247V68.7253C138.499 73.4674 134.645 77.3204 129.901 77.3204ZM23.3883 13.9997C19.3438 13.9997 16.0615 17.2811 16.0615 21.3247V68.7253C16.0615 72.7688 19.3438 76.0502 23.3883 76.0502H129.901C133.946 76.0502 137.228 72.7688 137.228 68.7253V21.3247C137.228 17.2811 133.946 13.9997 129.901 13.9997H23.3883Z" fill="#3FB1B5"/>
<path d="M103.728 112.59H51.2978L49.1167 97.5801H101.569L103.728 112.59Z" fill="#FFCF2D"/>
<path d="M131.702 88.9219C125.158 88.9219 119.864 94.2145 119.864 100.756V112.59H75.2476V100.756C75.2476 94.2145 80.5415 88.9219 87.0847 88.9219H131.702Z" fill="white"/>
<path d="M120.5 113.226H74.6123V100.756C74.6123 93.8761 80.2027 88.2871 87.0847 88.2871H131.702V89.5573C125.518 89.5573 120.5 94.5747 120.5 100.756V113.226ZM75.8828 111.956H119.229V100.756C119.229 95.8449 122.088 91.5897 126.217 89.5573H87.0847C80.9015 89.5573 75.8828 94.5747 75.8828 100.756V111.956Z" fill="#3FB1B5"/>
<path d="M142.819 97.5806H98.2022C96.8258 92.5843 92.2307 88.9219 86.7886 88.9219H131.405C136.848 88.9219 141.422 92.5843 142.819 97.5806Z" fill="white"/>
<path d="M143.666 98.2161H97.7366L97.6096 97.7503C96.2755 92.9234 91.8287 89.5573 86.8101 89.5573V88.2871H131.427C136.996 88.2871 141.951 92.0343 143.455 97.4116L143.666 98.2161ZM98.6684 96.9458H141.951C140.363 92.5635 136.128 89.5573 131.406 89.5573H92.2734C95.2591 91.0181 97.6308 93.6644 98.6684 96.9458Z" fill="#3FB1B5"/>
<path d="M129.901 176.546H23.3883C18.645 176.546 14.791 172.693 14.791 167.951V120.55C14.791 115.808 18.645 111.955 23.3883 111.955H129.901C134.645 111.955 138.499 115.808 138.499 120.55V167.951C138.499 172.693 134.645 176.546 129.901 176.546ZM23.3883 113.225C19.3438 113.225 16.0615 116.507 16.0615 120.55V167.951C16.0615 171.994 19.3438 175.276 23.3883 175.276H129.901C133.946 175.276 137.228 171.994 137.228 167.951V120.55C137.228 116.507 133.946 113.225 129.901 113.225H23.3883Z" fill="#3FB1B5"/>
<path d="M98.4768 44.7177C98.1169 44.7177 97.8416 44.4425 97.8416 44.0826C97.8416 40.653 95.0676 37.8796 91.6371 37.8796H61.6737C58.2433 37.8796 55.4693 40.653 55.4693 44.0826C55.4693 44.4425 55.194 44.7177 54.834 44.7177C54.474 44.7177 54.1987 44.4425 54.1987 44.0826C54.1987 39.9543 57.5445 36.6094 61.6737 36.6094H91.6371C95.7664 36.6094 99.1121 39.9543 99.1121 44.0826C99.1121 44.4425 98.8368 44.7177 98.4768 44.7177Z" fill="#3FB1B5"/>
<path d="M98.4768 143.943C98.1169 143.943 97.8416 143.668 97.8416 143.308C97.8416 139.878 95.0676 137.105 91.6371 137.105H61.6737C58.2433 137.105 55.4693 139.878 55.4693 143.308C55.4693 143.668 55.194 143.943 54.834 143.943C54.474 143.943 54.1987 143.668 54.1987 143.308C54.1987 139.18 57.5445 135.835 61.6737 135.835H91.6371C95.7664 135.835 99.1121 139.18 99.1121 143.308C99.1121 143.668 98.8368 143.943 98.4768 143.943Z" fill="#3FB1B5"/>
</svg>
