<svg width="335" height="459" viewBox="0 0 335 459" fill="none" xmlns="http://www.w3.org/2000/svg">
<path d="M217.392 268.826V386.661H190.16L172.817 338.244L147.979 268.826H217.392Z" fill="#A0505A"/>
<path d="M147.979 268.826H217.392V306.658L156.237 291.881L147.979 268.826Z" fill="#73325A"/>
<path d="M218.027 387.296H189.716L171.653 336.868L173.135 337.673C173.177 337.694 176.693 339.578 183.85 340.509C190.457 341.377 201.637 341.568 217.244 337.609L218.027 337.419V387.296ZM190.605 386.026H216.757V339.049C201.299 342.881 190.203 342.648 183.575 341.78C178.768 341.145 175.591 340.107 173.919 339.43L190.605 386.026Z" fill="white"/>
<path d="M186.984 350.248C184.93 350.248 183.257 348.575 183.257 346.522C183.257 344.468 184.93 342.796 186.984 342.796C189.038 342.796 190.711 344.468 190.711 346.522C190.711 348.575 189.038 350.248 186.984 350.248ZM186.984 344.066C185.628 344.066 184.527 345.167 184.527 346.522C184.527 347.877 185.628 348.978 186.984 348.978C188.339 348.978 189.44 347.877 189.44 346.522C189.44 345.167 188.339 344.066 186.984 344.066Z" fill="white"/>
<path d="M201.723 360.22C199.669 360.22 197.996 358.547 197.996 356.494C197.996 354.44 199.669 352.768 201.723 352.768C203.777 352.768 205.449 354.44 205.449 356.494C205.449 358.547 203.777 360.22 201.723 360.22ZM201.723 354.038C200.367 354.038 199.266 355.139 199.266 356.494C199.266 357.849 200.367 358.949 201.723 358.949C203.078 358.949 204.179 357.849 204.179 356.494C204.179 355.139 203.078 354.038 201.723 354.038Z" fill="white"/>
<path d="M212.691 349.147C210.637 349.147 208.964 347.475 208.964 345.421C208.964 343.368 210.637 341.695 212.691 341.695C214.745 341.695 216.418 343.368 216.418 345.421C216.418 347.475 214.745 349.147 212.691 349.147ZM212.691 342.966C211.336 342.966 210.234 344.066 210.234 345.421C210.234 346.776 211.336 347.877 212.691 347.877C214.046 347.877 215.147 346.776 215.147 345.421C215.147 344.066 214.046 342.966 212.691 342.966Z" fill="white"/>
<path d="M208.35 371.82C206.296 371.82 204.623 370.148 204.623 368.094C204.623 366.041 206.296 364.368 208.35 364.368C210.404 364.368 212.077 366.041 212.077 368.094C212.077 370.148 210.404 371.82 208.35 371.82ZM208.35 365.638C206.995 365.638 205.894 366.739 205.894 368.094C205.894 369.449 206.995 370.55 208.35 370.55C209.705 370.55 210.806 369.449 210.806 368.094C210.806 366.739 209.705 365.638 208.35 365.638Z" fill="white"/>
<path d="M190.076 366.189C188.022 366.189 186.349 364.517 186.349 362.463C186.349 360.41 188.022 358.737 190.076 358.737C192.13 358.737 193.803 360.41 193.803 362.463C193.803 364.517 192.13 366.189 190.076 366.189ZM190.076 360.008C188.721 360.008 187.62 361.108 187.62 362.463C187.62 363.818 188.721 364.919 190.076 364.919C191.431 364.919 192.532 363.818 192.532 362.463C192.532 361.108 191.431 360.008 190.076 360.008Z" fill="white"/>
<path d="M195.116 383.126C193.062 383.126 191.389 381.453 191.389 379.4C191.389 377.346 193.062 375.674 195.116 375.674C197.17 375.674 198.842 377.346 198.842 379.4C198.842 381.453 197.17 383.126 195.116 383.126ZM195.116 376.944C193.76 376.944 192.659 378.045 192.659 379.4C192.659 380.755 193.76 381.856 195.116 381.856C196.471 381.856 197.572 380.755 197.572 379.4C197.572 378.045 196.471 376.944 195.116 376.944Z" fill="white"/>
<path d="M230.267 408.636L211.59 447.399C208.943 453.644 202.823 457.709 196.026 457.709H172.203C166.105 457.709 162.399 451.527 164.728 445.896L188.678 388.143C190.012 384.629 192.363 381.707 195.306 379.653C198.271 377.6 201.828 376.436 205.576 376.436C210.785 376.436 215.952 379.971 219.383 383.888L227.683 392.843C231.516 397.204 232.511 403.322 230.267 408.636Z" fill="#66B0F0"/>
<path d="M230.267 408.635L211.59 447.398C208.943 453.644 202.823 457.708 196.026 457.708H170.7C168.35 457.708 167.015 456.248 166.232 454.236H171.865C178.662 454.236 184.782 450.172 187.429 443.926L208.964 399.024C210.976 394.832 215.232 392.144 219.891 392.144C225.968 392.144 230.584 396.589 231.431 402.221C231.516 404.38 231.135 406.561 230.267 408.635Z" fill="white"/>
<path d="M196.026 458.344H170.7C168.349 458.344 166.634 457.031 165.639 454.47C165.554 454.279 165.596 454.046 165.702 453.877C165.829 453.707 166.02 453.602 166.232 453.602H171.864C178.408 453.602 184.295 449.706 186.836 443.673C186.836 443.673 186.836 443.652 186.857 443.652L208.392 398.749C210.51 394.346 215.02 391.509 219.891 391.509C226.01 391.509 231.135 395.976 232.067 402.136C232.067 402.157 232.067 402.179 232.067 402.2C232.151 404.486 231.749 406.752 230.86 408.89C230.86 408.89 230.86 408.911 230.838 408.911L212.162 447.653C209.409 454.152 203.077 458.344 196.026 458.344ZM167.227 454.872C168.032 456.375 169.154 457.074 170.7 457.074H196.026C202.569 457.074 208.456 453.178 210.997 447.145C210.997 447.145 210.997 447.123 211.018 447.123L229.695 408.382C230.5 406.434 230.881 404.38 230.796 402.285C229.949 396.78 225.375 392.779 219.891 392.779C215.507 392.779 211.442 395.341 209.536 399.3L188 444.181C185.247 450.68 178.916 454.872 171.864 454.872H167.227Z" fill="#66B0F0"/>
<path d="M225.968 390.98C223.723 389.752 221.013 388.863 218.641 388.863C214.089 388.863 209.875 391.509 207.905 395.616L185.607 442.107C182.77 448.818 176.206 453.158 168.9 453.158H164.792C164.58 452.755 164.432 452.332 164.284 451.887H168.9C175.697 451.887 181.796 447.844 184.443 441.599L184.464 441.577L206.783 395.066C208.964 390.514 213.623 387.593 218.663 387.593C220.272 387.593 222.199 388.122 223.851 388.694L225.968 390.98Z" fill="white"/>
<path d="M147.979 268.826L142.664 338.244L140.292 369.343C140.292 369.343 124.813 386.576 107.194 375.948L99.0419 338.265L80.3862 252.038C75.3464 228.729 91.2704 206.056 114.924 202.901L147.979 268.826Z" fill="#A0505A"/>
<path d="M119.116 380.881C115.326 380.881 111.154 379.928 106.877 377.345L106.644 377.197L98.2158 337.354L99.2323 337.672C119.285 343.684 142.282 337.714 142.515 337.651L143.383 337.418L140.927 370.465L140.779 370.634C140.609 370.804 136.755 375.059 130.636 378.065C127.565 379.547 123.584 380.881 119.116 380.881ZM107.766 376.393C114.796 380.542 122.292 380.711 130.043 376.922C135.294 374.339 138.936 370.698 139.677 369.915L141.964 339.069C140.037 339.514 135.04 340.594 128.581 341.186C121.149 341.885 110.244 342.054 99.8675 339.175L107.766 376.393Z" fill="white"/>
<path d="M118.332 358.08C116.278 358.08 114.605 356.407 114.605 354.354C114.605 352.3 116.278 350.628 118.332 350.628C120.386 350.628 122.059 352.3 122.059 354.354C122.059 356.407 120.386 358.08 118.332 358.08ZM118.332 351.898C116.977 351.898 115.876 352.999 115.876 354.354C115.876 355.709 116.977 356.81 118.332 356.81C119.688 356.81 120.789 355.709 120.789 354.354C120.789 352.999 119.688 351.898 118.332 351.898Z" fill="white"/>
<path d="M137.983 353.339C135.929 353.339 134.256 351.666 134.256 349.613C134.256 347.559 135.929 345.887 137.983 345.887C140.037 345.887 141.71 347.559 141.71 349.613C141.71 351.666 140.037 353.339 137.983 353.339ZM137.983 347.157C136.628 347.157 135.527 348.258 135.527 349.613C135.527 350.968 136.628 352.068 137.983 352.068C139.339 352.068 140.44 350.968 140.44 349.613C140.44 348.258 139.339 347.157 137.983 347.157Z" fill="white"/>
<path d="M106.474 349.146C104.42 349.146 102.747 347.474 102.747 345.42C102.747 343.367 104.42 341.694 106.474 341.694C108.528 341.694 110.201 343.367 110.201 345.42C110.201 347.474 108.528 349.146 106.474 349.146ZM106.474 342.965C105.119 342.965 104.018 344.065 104.018 345.42C104.018 346.775 105.119 347.876 106.474 347.876C107.829 347.876 108.93 346.775 108.93 345.42C108.93 344.065 107.829 342.965 106.474 342.965Z" fill="white"/>
<path d="M115.241 374.911C113.187 374.911 111.514 373.238 111.514 371.185C111.514 369.131 113.187 367.459 115.241 367.459C117.295 367.459 118.968 369.131 118.968 371.185C118.968 373.238 117.295 374.911 115.241 374.911ZM115.241 368.729C113.886 368.729 112.785 369.83 112.785 371.185C112.785 372.54 113.886 373.641 115.241 373.641C116.596 373.641 117.697 372.54 117.697 371.185C117.697 369.83 116.596 368.729 115.241 368.729Z" fill="white"/>
<path d="M129.661 368.729C127.607 368.729 125.935 367.057 125.935 365.003C125.935 362.95 127.607 361.277 129.661 361.277C131.715 361.277 133.388 362.95 133.388 365.003C133.388 367.057 131.715 368.729 129.661 368.729ZM129.661 362.548C128.306 362.548 127.205 363.648 127.205 365.003C127.205 366.358 128.306 367.459 129.661 367.459C131.017 367.459 132.118 366.358 132.118 365.003C132.118 363.648 131.017 362.548 129.661 362.548Z" fill="white"/>
<path d="M160.705 376.753L140.292 458.365H133.855C133.558 458.365 133.283 458.344 132.986 458.323C128.116 457.878 124.008 453.771 122.97 448.923L107.173 375.906C124.791 386.555 140.292 369.322 140.292 369.322L160.705 376.753Z" fill="#66B0F0"/>
<path d="M161.743 418.629C166.041 395.934 167.227 378.595 159.816 377.198C152.404 375.801 139.212 390.853 134.913 413.548C130.615 436.242 132.859 456.312 140.271 457.709C147.682 459.128 157.444 441.345 161.743 418.629Z" fill="white"/>
<path d="M141.118 458.429C140.8 458.429 140.461 458.408 140.143 458.344C136.29 457.625 133.6 452.417 132.563 443.694C131.567 435.29 132.181 424.535 134.278 413.442C136.268 402.963 140.313 393.203 145.67 385.963C150.583 379.336 155.919 375.822 159.921 376.584C163.775 377.304 165.681 381.665 165.787 389.922C165.872 396.654 164.749 406.075 162.357 418.756C160.663 427.69 158.1 436.094 154.945 443.059C151.832 449.94 148.423 454.767 145.098 457.032C143.743 457.942 142.409 458.429 141.118 458.429ZM158.82 377.749C155.432 377.749 150.879 381.093 146.708 386.725C141.456 393.817 137.496 403.386 135.527 413.675C133.452 424.662 132.838 435.269 133.812 443.546C134.765 451.549 137.158 456.481 140.376 457.095C141.605 457.328 142.96 456.947 144.4 455.973C150.901 451.549 157.783 436.158 161.107 418.523C163.5 405.948 164.601 396.59 164.516 389.943C164.432 382.491 162.801 378.426 159.688 377.833C159.413 377.77 159.117 377.749 158.82 377.749Z" fill="#66B0F0"/>
<path d="M131.948 413.188C129.725 424.958 129.069 436.327 130.127 445.218C130.89 451.612 132.499 456.164 134.701 458.365H133.854C133.558 458.365 133.282 458.344 132.986 458.323C130.996 455.698 129.577 451.294 128.857 445.367C127.777 436.369 128.433 424.852 130.699 412.955C132.838 401.692 137.158 391.128 142.896 383.189C146.327 378.447 149.926 375.123 153.209 373.62L155.114 374.255C147.555 376.499 136.078 391.403 131.948 413.188Z" fill="white"/>
<path d="M114.924 202.881L211.527 192.931L308.088 220.008L307.262 232.837C305.949 253.076 288.5 268.827 268.214 268.827H148.001L114.924 202.881Z" fill="#FE5244"/>
<path d="M263.957 260.572H143.744C143.384 260.572 143.108 260.296 143.108 259.936C143.108 259.577 143.384 259.301 143.744 259.301H263.957C273.147 259.301 282.782 254.453 290.406 245.964C297.626 237.919 301.946 227.863 301.946 219.077C301.946 218.718 302.222 218.442 302.582 218.442C302.942 218.442 303.217 218.718 303.217 219.077C303.217 228.181 298.77 238.554 291.358 246.832C283.481 255.554 273.507 260.572 263.957 260.572Z" fill="white"/>
<path d="M254.492 249.986H138.874C138.514 249.986 138.238 249.711 138.238 249.351C138.238 248.991 138.514 248.716 138.874 248.716H254.492C262.518 248.716 270.818 244.947 277.828 238.088C284.413 231.652 289.029 223.353 290.491 215.309C290.554 214.97 290.893 214.737 291.232 214.8C291.571 214.864 291.803 215.203 291.74 215.541C288.754 231.822 272.724 249.986 254.492 249.986Z" fill="white"/>
<path d="M244.306 239.188H132.732C132.372 239.188 132.097 238.913 132.097 238.553C132.097 238.193 132.372 237.918 132.732 237.918H244.306C259.553 237.918 272.788 224.2 277.51 211.307C277.637 210.968 277.997 210.799 278.314 210.926C278.653 211.053 278.823 211.413 278.696 211.73C276.07 218.907 271.326 225.661 265.313 230.741C258.769 236.267 251.506 239.188 244.306 239.188Z" fill="white"/>
<path d="M238.801 227.545H127.227C126.867 227.545 126.592 227.27 126.592 226.91C126.592 226.55 126.867 226.275 127.227 226.275H238.801C249.304 226.275 260.315 219.437 267.557 208.45C267.748 208.153 268.15 208.068 268.447 208.259C268.743 208.449 268.828 208.852 268.637 209.148C261.141 220.495 249.728 227.545 238.801 227.545Z" fill="white"/>
<path d="M233.507 216.96H121.933C121.573 216.96 121.298 216.684 121.298 216.324C121.298 215.965 121.573 215.689 121.933 215.689H233.507C241.596 215.689 249.749 211.963 256.462 205.21C256.716 204.956 257.118 204.956 257.351 205.21C257.605 205.464 257.605 205.866 257.351 206.099C250.405 213.107 241.935 216.96 233.507 216.96Z" fill="white"/>
<path d="M227.79 206.163H116.216C115.856 206.163 115.581 205.888 115.581 205.528C115.581 205.168 115.856 204.893 116.216 204.893H227.79C232.554 204.893 237.34 203.538 242.041 200.891C242.337 200.722 242.74 200.828 242.909 201.124C243.079 201.421 242.973 201.823 242.676 201.992C237.785 204.766 232.766 206.163 227.79 206.163Z" fill="white"/>
<path d="M147.768 269.463C147.535 269.463 147.302 269.336 147.196 269.103L114.141 203.157C113.992 202.839 114.12 202.458 114.416 202.31C114.734 202.162 115.115 202.289 115.263 202.585L148.318 268.531C148.466 268.849 148.339 269.23 148.043 269.378C147.958 269.442 147.873 269.463 147.768 269.463Z" fill="white"/>
<path d="M313.381 131.643C304.276 134.225 295.318 133.463 294.365 130.69C293.476 128.044 297.499 123.513 305.652 120.507C306.054 120.359 306.478 120.211 306.901 120.062C309.358 119.237 311.814 118.707 314.122 118.432C320.962 117.564 326.531 118.792 327.23 120.867C328.183 123.64 323.016 128.912 313.381 131.643Z" fill="white"/>
<path d="M302.539 133.865C297.923 133.865 294.429 132.827 293.751 130.901C292.608 127.514 297.626 122.793 305.419 119.913C305.821 119.765 306.245 119.617 306.668 119.469H306.69C309.082 118.664 311.56 118.114 314.037 117.818C321.047 116.928 326.976 118.156 327.823 120.676C328.119 121.501 327.971 122.517 327.42 123.576C325.642 126.963 320.2 130.393 313.55 132.277C309.718 133.335 305.843 133.865 302.539 133.865ZM318.463 118.791C317.171 118.791 315.753 118.876 314.207 119.067C311.814 119.363 309.421 119.892 307.113 120.676C306.69 120.824 306.266 120.972 305.885 121.12C302.2 122.475 299.066 124.275 297.076 126.201C295.403 127.81 294.62 129.419 294.98 130.499C295.678 132.552 303.831 133.695 313.212 131.049C318.4 129.588 324.456 126.519 326.298 122.983C326.679 122.242 326.806 121.586 326.637 121.078C326.256 119.956 323.249 118.791 318.463 118.791Z" fill="#3FB1B5"/>
<path d="M307.621 193.374H304.127L294.958 131.493V131.451L294.725 129.906C295.17 127.09 299.574 123.11 307.346 120.527C311.221 119.236 315.075 118.664 318.357 118.601L321.703 127.767L322.02 128.635L332.608 157.66C338.961 174.999 326.107 193.374 307.621 193.374Z" fill="#A0505A"/>
<path d="M321.914 128.424C319.691 129.821 316.811 131.112 313.381 132.086C305.503 134.309 297.52 133.399 294.958 131.493V131.451L294.725 129.906C295.17 127.09 299.574 123.11 307.346 120.527C311.221 119.236 315.075 118.664 318.357 118.601L321.914 128.424Z" fill="#73325A"/>
<path d="M194.205 142.46L183.088 170.109C177.603 183.764 164.347 192.719 149.609 192.719H0.17334V179.043C0.17334 175.74 2.20618 172.776 5.29781 171.612L20.6501 165.79C22.0477 165.261 23.5088 164.985 24.9911 164.985H42.4186L141.054 155.035L158.079 116.061L194.205 142.46Z" fill="#A0505A"/>
<path d="M0.808606 184.822C0.448622 184.822 0.17334 184.547 0.17334 184.187C0.17334 181.414 1.8462 178.979 4.45079 177.984L16.0338 173.602C16.3514 173.475 16.7326 173.644 16.8597 173.962C16.9867 174.279 16.8173 174.661 16.4997 174.788L4.91664 179.17C2.82026 179.974 1.44387 181.943 1.44387 184.187C1.44387 184.547 1.16859 184.822 0.808606 184.822Z" fill="#73325A"/>
<path d="M0.808606 191.808C0.448622 191.808 0.17334 191.532 0.17334 191.173C0.17334 188.399 1.8462 185.965 4.45079 184.97L16.0338 180.587C16.3514 180.46 16.7326 180.63 16.8597 180.947C16.9867 181.265 16.8173 181.646 16.4997 181.773L4.91664 186.155C2.82026 186.96 1.44387 188.928 1.44387 191.173C1.44387 191.532 1.16859 191.808 0.808606 191.808Z" fill="#73325A"/>
<path d="M4.68345 192.719C4.42934 192.719 4.17522 192.55 4.09052 192.296C3.96347 191.957 4.13288 191.597 4.47169 191.491L16.0547 187.32C16.3935 187.193 16.7535 187.363 16.8594 187.702C16.9865 188.04 16.8171 188.4 16.4782 188.506L4.89521 192.677C4.83168 192.698 4.74698 192.719 4.68345 192.719Z" fill="#73325A"/>
<path d="M15.0596 168.139C15.0596 168.139 25.9015 140.47 29.3743 140.936C32.8471 141.401 19.7605 166.361 19.7605 166.361L15.0596 168.139Z" fill="#FE5244"/>
<path d="M158.079 116.082L155.581 121.777L187.577 158.931L194.205 142.46L158.079 116.082Z" fill="#73325A"/>
<path d="M294.958 131.515L308.087 220.008L211.548 192.931L194.205 142.439L149.44 109.731L165.152 91.0163C179.17 74.3129 199.859 64.6592 221.67 64.6592H252.692C279.67 64.6592 304.509 79.3938 317.447 103.062L327.505 120.464C327.505 120.464 324.477 116.019 308.151 120.486C293.773 124.444 294.958 131.515 294.958 131.515Z" fill="#3FB1B5"/>
<path d="M194.205 142.672C194.163 142.672 194.099 142.672 194.057 142.65C193.718 142.566 193.506 142.227 193.591 141.888L198.61 120.125C198.694 119.786 199.033 119.575 199.372 119.659C199.711 119.744 199.922 120.083 199.838 120.421L194.819 142.185C194.756 142.481 194.502 142.672 194.205 142.672Z" fill="white"/>
<path d="M305.652 199.98C305.355 199.98 305.08 199.769 305.017 199.451L288.69 97.9812C288.627 97.6424 288.86 97.3037 289.22 97.2614C289.558 97.1979 289.897 97.4308 289.939 97.7907L306.266 199.26C306.329 199.599 306.097 199.938 305.737 199.98C305.715 199.98 305.694 199.98 305.652 199.98Z" fill="white"/>
<path d="M307.876 220.643C307.812 220.643 307.77 220.643 307.706 220.622L211.357 193.142C211.019 193.037 210.828 192.698 210.913 192.359C211.018 192.02 211.357 191.83 211.696 191.915L308.045 219.394C308.384 219.5 308.574 219.838 308.49 220.177C308.405 220.452 308.151 220.643 307.876 220.643Z" fill="white"/>
<path d="M216.735 50.5171V64.7436L241.85 64.5319V39.4238L216.735 50.5171Z" fill="#A0505A"/>
<path d="M243.883 35.0413V35.4224C243.883 39.233 241.003 42.3239 237.191 42.3239H235.709C234.756 46.0923 226.286 50.4957 220.272 50.4957H213.263C205.597 50.4957 199.732 43.6153 200.981 36.0363L201.32 33.9828L199.245 32.8184C198.059 32.141 197.72 30.5955 198.546 29.4947L203.035 23.5669L204.009 17.7239C204.793 12.9182 207.948 9.0017 212.14 7.0752C213.792 25.684 230.224 27.8857 234.565 28.1397H236.979C240.791 28.1397 243.883 31.2306 243.883 35.0413Z" fill="#A0505A"/>
<path d="M232.766 37.4972C232.406 37.4972 232.13 37.2219 232.13 36.862C232.13 33.5171 234.862 30.7861 238.208 30.7861C238.568 30.7861 238.843 31.0614 238.843 31.4213C238.843 31.7812 238.568 32.0564 238.208 32.0564C235.561 32.0564 233.401 34.2157 233.401 36.862C233.401 37.2219 233.126 37.4972 232.766 37.4972Z" fill="#73325A"/>
<path d="M209.811 28.3302C210.408 28.3302 210.891 27.2118 210.891 25.8321C210.891 24.4524 210.408 23.334 209.811 23.334C209.215 23.334 208.731 24.4524 208.731 25.8321C208.731 27.2118 209.215 28.3302 209.811 28.3302Z" fill="#73325A"/>
<path d="M214.216 22.678C214.025 22.678 213.834 22.5934 213.707 22.424C210.891 18.5286 208.265 18.7404 208.223 18.7404C207.863 18.7827 207.566 18.5286 207.524 18.1687C207.482 17.83 207.736 17.5125 208.096 17.4701C208.223 17.449 211.484 17.1949 214.724 21.6619C214.936 21.9371 214.872 22.3393 214.576 22.551C214.47 22.6357 214.343 22.678 214.216 22.678Z" fill="#73325A"/>
<path d="M234.566 28.1401H236.98C240.791 28.1401 243.883 31.231 243.883 35.0417V35.4227C243.883 39.2334 241.003 42.3243 237.191 42.3243L235.561 43.4675C228.7 47.8709 219.213 65.1883 221.543 77.446C224.168 91.2279 236.175 94.2976 247.271 92.1806C258.367 90.0635 266.456 83.6066 263.83 69.8034C263.534 68.1733 263.047 66.5432 262.433 64.9342C262.623 64.9978 262.793 65.0613 262.983 65.1248C276.324 68.7661 291.994 69.1895 296.314 58.7737C300.633 48.3578 299.659 38.0478 286.679 32.6706C279.14 29.5373 268.891 29.5585 260.95 31.7179C264.953 17.8089 257.838 2.33336 244.772 0.787924C224.253 -1.64667 212.479 6.8215 212.162 7.05437C212.141 9.51014 213.813 26.9334 234.566 28.1401Z" fill="#73325A"/>
<path d="M262.983 65.7812C262.687 65.7812 262.411 65.5695 262.369 65.2731C260.124 53.5235 250.511 47.0454 250.405 46.9819C250.235 46.876 250.129 46.6643 250.129 46.4526C250.129 46.2409 250.235 46.0504 250.405 45.9234C256.969 41.2871 259.807 34.5972 260.908 31.0406C261.014 30.7018 261.374 30.5113 261.691 30.6171C262.03 30.723 262.221 31.0829 262.115 31.4004C261.014 34.9994 258.219 41.6046 251.845 46.4314C254.238 48.2309 261.628 54.5397 263.618 65.0191C263.682 65.3578 263.449 65.6965 263.11 65.76C263.068 65.7812 263.025 65.7812 262.983 65.7812Z" fill="white"/>
<path d="M267.24 31.4002H261.628C261.268 31.4002 260.993 31.125 260.993 30.7651V25.1549C260.993 21.8735 263.661 19.2061 266.944 19.2061H267.24C270.522 19.2061 273.19 21.8735 273.19 25.1549V25.4513C273.212 27.0179 272.597 28.521 271.475 29.6431C270.353 30.7651 268.849 31.4002 267.24 31.4002ZM262.264 30.13H267.24C268.511 30.13 269.675 29.6431 270.565 28.7327C271.433 27.8436 271.92 26.6792 271.92 25.4513V25.1549C271.92 22.5722 269.823 20.4763 267.24 20.4763H266.944C264.36 20.4763 262.264 22.5722 262.264 25.1549V30.13Z" fill="#FE5244"/>
<path d="M270.374 39.9953C268.108 39.9953 265.927 38.8944 264.635 36.8621L261.035 31.1461C260.845 30.8497 260.929 30.4474 261.226 30.2781L266.943 26.6791C268.468 25.7264 270.289 25.4089 272.047 25.8111C273.804 26.2133 275.308 27.2719 276.282 28.7961L276.621 29.3254C277.595 30.8497 277.891 32.6703 277.489 34.4275C277.087 36.1846 276.028 37.6877 274.503 38.6616L273.974 39.0003C272.873 39.6566 271.623 39.9953 270.374 39.9953ZM262.454 30.9979L265.715 36.1846C267.325 38.7251 270.734 39.4872 273.317 37.8783L273.847 37.5395C275.096 36.7562 275.943 35.5495 276.261 34.1099C276.578 32.6703 276.324 31.2096 275.541 29.9605L275.202 29.4313C274.418 28.1822 273.211 27.3354 271.771 27.0178C270.331 26.7003 268.87 26.9543 267.621 27.7376L262.454 30.9979Z" fill="#FE5244"/>
<path d="M235.688 56.9323C235.54 56.9323 235.391 56.9323 235.243 56.9111C233.655 56.7841 232.215 56.0643 231.177 54.8576L230.987 54.6247C229.949 53.4392 229.441 51.9149 229.547 50.3483C229.653 48.7605 230.373 47.2997 231.58 46.2624L235.561 42.4517C235.688 42.3247 235.857 42.2612 236.027 42.2823C236.196 42.2823 236.365 42.367 236.471 42.494L240.389 46.9187C241.426 48.1254 241.956 49.6708 241.829 51.2586C241.702 52.8464 240.982 54.286 239.775 55.3233L239.521 55.5138C238.483 56.4242 237.128 56.9323 235.688 56.9323ZM235.984 43.8066L232.469 47.1727L232.448 47.1939C231.495 48.0195 230.923 49.1627 230.839 50.4329C230.754 51.682 231.156 52.8675 231.961 53.799C231.961 53.799 231.961 53.8202 231.982 53.8202L232.173 54.0531C232.977 54.9846 234.1 55.5562 235.349 55.6621C236.598 55.7467 237.805 55.3445 238.758 54.54L239.012 54.3283C239.944 53.5238 240.516 52.4018 240.622 51.1527C240.706 49.9037 240.304 48.697 239.499 47.7443L235.984 43.8066Z" fill="#FE5244"/>
<path d="M243.798 54.6038C240.834 54.6038 238.102 52.6349 237.255 49.6499L235.455 43.1506C235.37 42.8119 235.561 42.4731 235.9 42.3673L242.401 40.5678C244.137 40.0809 245.958 40.3138 247.525 41.1817C249.092 42.0709 250.236 43.5105 250.723 45.2465L250.892 45.8604C251.379 47.5964 251.146 49.417 250.278 50.9836C249.389 52.5502 247.949 53.6935 246.212 54.1804L245.598 54.3497C244.984 54.5403 244.391 54.6038 243.798 54.6038ZM238.483 49.3112C239.309 52.2115 242.337 53.9475 245.238 53.143L245.852 52.9737C247.271 52.5714 248.436 51.6611 249.156 50.3909C249.876 49.1207 250.045 47.6387 249.664 46.2203L249.494 45.6064C249.092 44.188 248.182 43.0236 246.911 42.3038C245.641 41.584 244.158 41.4146 242.739 41.7957L236.853 43.4258L238.483 49.3112Z" fill="#FE5244"/>
<path d="M143.193 458.344C143.15 458.344 143.108 458.344 143.066 458.323C142.727 458.26 142.494 457.921 142.579 457.561L179.466 284.958C179.53 284.62 179.869 284.387 180.229 284.472C180.568 284.535 180.8 284.874 180.716 285.234L143.807 457.836C143.743 458.132 143.489 458.344 143.193 458.344Z" fill="#FFCF2D"/>
<path d="M311.369 458.345C311.073 458.345 310.818 458.133 310.755 457.837L273.867 285.234C273.804 284.896 274.015 284.557 274.354 284.472C274.693 284.409 275.032 284.62 275.117 284.959L312.004 457.561C312.068 457.9 311.856 458.239 311.517 458.324C311.454 458.345 311.411 458.345 311.369 458.345Z" fill="#FFCF2D"/>
<path d="M302.687 420.026H151.367C151.007 420.026 150.731 419.751 150.731 419.391C150.731 419.031 151.007 418.756 151.367 418.756H302.687C303.047 418.756 303.322 419.031 303.322 419.391C303.322 419.751 303.047 420.026 302.687 420.026Z" fill="#FFCF2D"/>
<path d="M303.512 285.106H151.027C149.1 285.106 147.533 283.54 147.533 281.613V272.319C147.533 270.393 149.1 268.826 151.027 268.826H303.512C305.439 268.826 307.006 270.393 307.006 272.319V281.613C307.006 283.54 305.439 285.106 303.512 285.106Z" fill="white"/>
<path d="M303.512 285.742H151.027C148.74 285.742 146.898 283.9 146.898 281.614V272.32C146.898 270.033 148.74 268.191 151.027 268.191H303.512C305.799 268.191 307.642 270.033 307.642 272.32V281.614C307.642 283.9 305.799 285.742 303.512 285.742ZM151.027 269.462C149.46 269.462 148.168 270.753 148.168 272.32V281.614C148.168 283.18 149.46 284.472 151.027 284.472H303.512C305.079 284.472 306.371 283.18 306.371 281.614V272.32C306.371 270.753 305.079 269.462 303.512 269.462H151.027Z" fill="#66B0F0"/>
</svg>
