<svg width="197" height="286" viewBox="0 0 197 286" fill="none" xmlns="http://www.w3.org/2000/svg">
<path d="M43.5681 56.036L1.53467 15.4735L8.56494 8.16972C18.9198 -2.58485 37.5755 -1.35696 48.3326 8.9742C59.0898 19.3265 60.9744 37.9776 50.6196 48.7322L43.5681 56.036Z" fill="white"/>
<path d="M43.5895 56.925L0.645508 15.4945L8.12044 7.72497C13.1602 2.47471 20.3387 -0.256271 28.3431 0.0189438C36.0087 0.294159 43.4625 3.38504 48.7987 8.50828C54.135 13.6315 57.5019 20.9776 58.0524 28.6413C58.6242 36.6226 56.1466 43.9052 51.1068 49.1555L43.5895 56.925ZM2.42423 15.4522L43.5472 55.1255L50.1539 48.2875C54.9608 43.3124 57.2901 36.3685 56.7608 28.7472C56.2314 21.3799 53.0127 14.3513 47.8882 9.43977C42.7637 4.52824 35.6275 1.56438 28.2796 1.31034C20.6564 1.03512 13.8167 3.63908 9.031 8.61413L2.42423 15.4522Z" fill="#FFCF2D"/>
<path d="M50.5989 49.367C50.4295 49.367 50.2813 49.3035 50.1542 49.1977L8.09957 8.63516C7.84547 8.38112 7.84545 8.00005 8.07838 7.746C8.33248 7.49196 8.73481 7.49196 8.96774 7.72483L51.0224 48.2873C51.2765 48.5414 51.2766 48.9224 51.0436 49.1765C50.9378 49.3035 50.7683 49.367 50.5989 49.367Z" fill="#FFCF2D"/>
<path d="M131.828 283.194C131.743 283.194 131.659 283.173 131.574 283.131C131.256 282.983 131.108 282.602 131.256 282.284L190.23 150.773L74.9294 10.456V10.4348C72.7483 7.47095 69.5508 5.56561 65.9086 5.03635C62.2664 4.50709 58.6454 5.45976 55.7232 7.70382L51.0222 11.3028C50.7469 11.5145 50.3446 11.4722 50.1328 11.1758C49.9211 10.9006 49.9634 10.4983 50.2599 10.2866L54.9609 6.68764C58.1584 4.25304 62.1182 3.2157 66.0992 3.7873C70.0802 4.3589 73.5742 6.4336 75.9458 9.67267L191.713 150.583L191.543 150.943L132.4 282.813C132.294 283.046 132.061 283.194 131.828 283.194Z" fill="#3FB1B5"/>
<path d="M189.087 157.865C192.665 157.865 195.566 154.965 195.566 151.387C195.566 147.81 192.665 144.909 189.087 144.909C185.508 144.909 182.607 147.81 182.607 151.387C182.607 154.965 185.508 157.865 189.087 157.865Z" fill="white"/>
<path d="M189.087 158.501C185.169 158.501 181.972 155.304 181.972 151.388C181.972 147.471 185.169 144.274 189.087 144.274C193.004 144.274 196.202 147.471 196.202 151.388C196.202 155.304 193.004 158.501 189.087 158.501ZM189.087 145.545C185.868 145.545 183.242 148.17 183.242 151.388C183.242 154.606 185.868 157.231 189.087 157.231C192.305 157.231 194.931 154.606 194.931 151.388C194.931 148.17 192.305 145.545 189.087 145.545Z" fill="#FFCF2D"/>
<path d="M115.396 267.824H146.969C156.053 267.824 163.401 275.192 163.401 284.252V284.718H98.9424V284.252C98.9636 275.192 106.311 267.824 115.396 267.824Z" fill="white"/>
<path d="M164.036 285.354H98.3071V284.253C98.3283 274.853 105.994 267.189 115.396 267.189H146.969C156.371 267.189 164.036 274.853 164.036 284.253V285.354V285.354ZM99.5777 284.083H162.766C162.681 275.446 155.629 268.46 146.969 268.46H115.396C106.756 268.46 99.6835 275.446 99.5777 284.083Z" fill="#FFCF2D"/>
</svg>
