<svg width="284" height="216" viewBox="0 0 284 216" fill="none" xmlns="http://www.w3.org/2000/svg">
<path d="M269.444 167.64H69.5684C62.051 167.64 55.9736 161.564 55.9736 154.049V14.2818C55.9736 6.76634 62.051 0.69043 69.5684 0.69043H269.444C276.962 0.69043 283.039 6.76634 283.039 14.2818V154.028C283.06 161.543 276.962 167.64 269.444 167.64Z" fill="white"/>
<path d="M269.444 168.276H69.5684C61.7122 168.276 55.3384 161.903 55.3384 154.049V14.2822C55.3384 6.42796 61.7122 0.0556641 69.5684 0.0556641H269.444C277.301 0.0556641 283.674 6.42796 283.674 14.2822V154.028C283.696 157.818 282.213 161.395 279.524 164.084C276.835 166.794 273.256 168.276 269.444 168.276ZM69.5684 1.32589C62.4322 1.32589 56.6089 7.14775 56.6089 14.2822V154.049C56.6089 161.184 62.4322 167.005 69.5684 167.005H269.444C272.917 167.005 276.178 165.651 278.635 163.195C281.07 160.739 282.425 157.479 282.404 154.028V14.2822C282.404 7.14775 276.581 1.32589 269.444 1.32589H69.5684Z" fill="#3FB1B5"/>
<path d="M269.572 154.642H71.6227C68.6793 154.642 66.3076 152.249 66.3076 149.328V15.6155C66.3076 12.6728 68.7005 10.3018 71.6227 10.3018H269.572C272.515 10.3018 274.887 12.694 274.887 15.6155V149.307C274.908 152.249 272.515 154.642 269.572 154.642Z" fill="#66B0F0"/>
<path d="M269.572 155.277H71.6227C68.3405 155.277 65.6724 152.61 65.6724 149.328V15.6159C65.6724 12.3345 68.3405 9.66699 71.6227 9.66699H269.572C272.854 9.66699 275.522 12.3345 275.522 15.6159V149.307C275.543 150.895 274.929 152.398 273.807 153.52C272.663 154.642 271.181 155.277 269.572 155.277ZM71.6227 10.9372C69.0393 10.9372 66.9429 13.0331 66.9429 15.6159V149.328C66.9429 151.911 69.0393 154.007 71.6227 154.007H269.572C270.821 154.007 272.007 153.52 272.896 152.631C273.786 151.742 274.252 150.577 274.252 149.328V15.6159C274.252 13.0331 272.155 10.9372 269.572 10.9372H71.6227Z" fill="#66B0F0"/>
<path d="M78.7162 23.4283H75.5822C74.2058 23.4283 73.0835 22.3062 73.0835 20.9302V17.7969C73.0835 16.4209 74.2058 15.2988 75.5822 15.2988H78.7162C80.0926 15.2988 81.2149 16.4209 81.2149 17.7969V20.9302C81.1938 22.3274 80.0926 23.4283 78.7162 23.4283ZM75.5822 16.5691C74.9046 16.5691 74.354 17.1195 74.354 17.7969V20.9302C74.354 21.6076 74.9046 22.1581 75.5822 22.1581H78.7162C79.3938 22.1581 79.9232 21.6076 79.9444 20.909V17.7969C79.9444 17.1195 79.3938 16.5691 78.7162 16.5691H75.5822Z" fill="white"/>
<path d="M92.9672 23.4283H89.8332C88.4568 23.4283 87.3345 22.3062 87.3345 20.9302V17.7969C87.3345 16.4209 88.4568 15.2988 89.8332 15.2988H92.9672C94.3436 15.2988 95.4659 16.4209 95.4659 17.7969V20.9302C95.4659 22.3062 94.3436 23.4283 92.9672 23.4283ZM89.8332 16.5691C89.1556 16.5691 88.605 17.1195 88.605 17.7969V20.9302C88.605 21.6076 89.1556 22.1581 89.8332 22.1581H92.9672C93.6448 22.1581 94.1954 21.6076 94.1954 20.9302V17.7969C94.1954 17.1195 93.6448 16.5691 92.9672 16.5691H89.8332Z" fill="white"/>
<path d="M107.219 23.4283H104.085C102.708 23.4283 101.586 22.3062 101.586 20.9302V17.7969C101.586 16.4209 102.708 15.2988 104.085 15.2988H107.219C108.595 15.2988 109.717 16.4209 109.717 17.7969V20.9302C109.717 22.3062 108.595 23.4283 107.219 23.4283ZM104.085 16.5691C103.407 16.5691 102.856 17.1195 102.856 17.7969V20.9302C102.856 21.6076 103.407 22.1581 104.085 22.1581H107.219C107.917 22.1581 108.447 21.6288 108.447 20.9302V17.7969C108.447 17.1195 107.896 16.5691 107.219 16.5691H104.085Z" fill="white"/>
<path d="M211.699 215.295H134.112L149.337 167.641H196.453L211.699 215.295Z" fill="white"/>
<path d="M212.567 215.931H133.243L148.871 167.006H196.918L212.567 215.931ZM134.98 214.66H210.83L195.986 168.276H149.802L134.98 214.66Z" fill="#3FB1B5"/>
<path d="M140.21 196.221L149.337 167.641H196.452L140.21 196.221Z" fill="#3FB1B5"/>
<path d="M258.052 54.7811H220.338C216.463 54.7811 213.308 51.6267 213.308 47.7525V23.4065C213.308 19.5323 216.463 16.3779 220.338 16.3779H258.052C261.927 16.3779 265.082 19.5323 265.082 23.4065V47.7525C265.082 51.6267 261.927 54.7811 258.052 54.7811ZM220.338 17.6482C217.162 17.6482 214.579 20.2309 214.579 23.4065V47.7525C214.579 50.928 217.162 53.5108 220.338 53.5108H258.052C261.228 53.5108 263.812 50.928 263.812 47.7525V23.4065C263.812 20.2309 261.228 17.6482 258.052 17.6482H220.338Z" fill="white"/>
<path d="M253.499 26.3278H224.722C224.362 26.3278 224.086 26.0526 224.086 25.6927C224.086 25.3328 224.362 25.0576 224.722 25.0576H253.499C253.859 25.0576 254.134 25.3328 254.134 25.6927C254.134 26.0526 253.859 26.3278 253.499 26.3278Z" fill="white"/>
<path d="M253.499 32.8913H224.722C224.362 32.8913 224.086 32.6161 224.086 32.2562C224.086 31.8963 224.362 31.6211 224.722 31.6211H253.499C253.859 31.6211 254.134 31.8963 254.134 32.2562C254.134 32.6161 253.859 32.8913 253.499 32.8913Z" fill="white"/>
<path d="M253.499 39.4538H224.722C224.362 39.4538 224.086 39.1786 224.086 38.8187C224.086 38.4588 224.362 38.1836 224.722 38.1836H253.499C253.859 38.1836 254.134 38.4588 254.134 38.8187C254.134 39.1786 253.859 39.4538 253.499 39.4538Z" fill="white"/>
<path d="M253.499 46.0163H224.722C224.362 46.0163 224.086 45.7411 224.086 45.3812C224.086 45.0213 224.362 44.7461 224.722 44.7461H253.499C253.859 44.7461 254.134 45.0213 254.134 45.3812C254.134 45.7411 253.859 46.0163 253.499 46.0163Z" fill="white"/>
<path d="M268.47 154.643H118.569L109.781 167.239C99.8494 181.466 78.8644 181.677 68.6578 167.641L15.126 94.032C17.3706 96.8265 27.6407 93.7144 37.4239 87.2786C47.3552 80.7369 53.7714 72.5017 51.7597 69.4531L88.8805 116.748L100.252 96.6783C103.365 91.3645 108.531 87.5538 114.545 86.1566L153.233 77.9636H186.584L223.345 86.0719C229.74 87.5327 235.161 91.7032 238.232 97.4827L268.47 154.643Z" fill="white"/>
<path d="M89.0709 178.671C80.7066 178.671 73.0834 174.797 68.1495 168.001L14.6177 94.3918L15.6341 93.6296C17.434 95.8525 26.9842 93.3967 37.0849 86.7492C41.7859 83.6584 45.8728 80.0806 48.5832 76.651C51.0396 73.5601 52.0349 70.9985 51.2302 69.7917L52.2678 69.0508L88.7956 115.605L99.701 96.3606C102.899 90.8986 108.256 86.961 114.397 85.5425L153.169 77.3284H186.648L186.711 77.3496L223.472 85.4579C230.037 86.9609 235.627 91.2374 238.782 97.1863L269.508 155.278H118.886L110.289 167.599C105.44 174.543 97.7952 178.586 89.3038 178.671C89.2403 178.671 89.1556 178.671 89.0709 178.671ZM17.074 95.6196L69.1871 167.26C73.9304 173.781 81.2571 177.486 89.325 177.401C97.3929 177.316 104.656 173.484 109.272 166.879L118.251 154.008H267.433L237.681 97.779C234.695 92.1477 229.422 88.1041 223.218 86.6857L186.521 78.5986H153.296L114.672 86.7704C108.87 88.1253 103.809 91.8513 100.802 96.9957L88.965 117.891L52.6701 71.6547C52.3737 73.2425 51.3361 75.2325 49.5573 77.4554C46.7622 80.9697 42.5694 84.6534 37.7625 87.8078C31.0499 92.2112 22.982 95.6831 18.1752 95.6831C17.794 95.6831 17.4128 95.662 17.074 95.6196Z" fill="#3FB1B5"/>
<path d="M227.327 154.41C227.094 154.41 226.882 154.283 226.755 154.072L216.104 133.049C215.955 132.732 216.061 132.351 216.379 132.203C216.696 132.054 217.078 132.16 217.226 132.478L227.877 153.5C228.025 153.818 227.919 154.199 227.602 154.347C227.517 154.389 227.432 154.41 227.327 154.41Z" fill="#3FB1B5"/>
<path d="M117.722 156.379C117.616 156.379 117.531 156.358 117.425 156.315C117.108 156.167 116.981 155.765 117.15 155.469L127.695 134.658C127.844 134.341 128.246 134.214 128.542 134.383C128.86 134.531 128.987 134.933 128.818 135.23L118.272 156.04C118.166 156.252 117.955 156.379 117.722 156.379Z" fill="#3FB1B5"/>
<path d="M98.5998 129.916C98.4092 129.916 98.2186 129.831 98.0916 129.662L73.9303 98.774C73.7186 98.4988 73.7609 98.0966 74.0362 97.8849C74.3115 97.6732 74.7138 97.7155 74.9255 97.9907L99.0868 128.878C99.2986 129.153 99.2562 129.556 98.981 129.767C98.8751 129.873 98.7268 129.916 98.5998 129.916Z" fill="#3FB1B5"/>
<path d="M182.879 99.8544L173.583 88.5282C173.35 88.253 173.392 87.8507 173.668 87.639C173.943 87.4062 174.345 87.4485 174.557 87.7237L183.048 98.0337L202.466 81.5631C202.742 81.3303 203.144 81.3726 203.356 81.6267C203.589 81.9019 203.546 82.3041 203.292 82.5158L182.879 99.8544Z" fill="#3FB1B5"/>
<path d="M158.739 100.257L136.356 82.5371C136.081 82.3254 136.038 81.9232 136.25 81.6479C136.462 81.3727 136.864 81.3304 137.139 81.5421L158.506 98.4573L166.743 87.9355C166.955 87.6603 167.357 87.618 167.632 87.8297C167.908 88.0414 167.95 88.4437 167.738 88.7189L158.739 100.257Z" fill="#3FB1B5"/>
<path d="M25.3114 105.464C23.2997 105.464 22.2409 104.85 21.7116 104.172C21.4998 103.897 21.5422 103.495 21.8174 103.283C22.0927 103.071 22.495 103.114 22.7068 103.389C23.5962 104.511 26.4972 104.447 30.457 103.262C34.671 101.992 39.7531 99.4935 44.3694 96.4238C49.0916 93.2905 53.1996 89.6704 55.9313 86.1985C58.4088 83.0652 59.404 80.4824 58.5994 79.2546C58.4088 78.9582 58.4935 78.5771 58.79 78.3654C59.0864 78.1749 59.4676 78.2596 59.6793 78.5559C60.8228 80.3131 59.8487 83.2981 56.9477 86.9818C54.1313 90.5384 49.9174 94.2644 45.0894 97.4611C40.3037 100.637 35.2427 103.135 30.8382 104.469C28.4454 105.188 26.6455 105.464 25.3114 105.464Z" fill="#3FB1B5"/>
<path d="M52.4798 84.9073C50.8069 84.9073 49.4517 83.5524 49.4517 81.8799C49.4517 80.2075 50.8069 78.8525 52.4798 78.8525C54.1526 78.8525 55.5079 80.2075 55.5079 81.8799C55.5079 83.5524 54.1526 84.9073 52.4798 84.9073ZM52.4798 80.1228C51.5057 80.1228 50.7222 80.9061 50.7222 81.8799C50.7222 82.8538 51.5057 83.6371 52.4798 83.6371C53.4538 83.6371 54.2373 82.8538 54.2373 81.8799C54.2373 80.9061 53.4538 80.1228 52.4798 80.1228Z" fill="#3FB1B5"/>
<path d="M170.639 99.9386C168.966 99.9386 167.611 98.5836 167.611 96.9112C167.611 95.2387 168.966 93.8838 170.639 93.8838C172.312 93.8838 173.667 95.2387 173.667 96.9112C173.667 98.5836 172.312 99.9386 170.639 99.9386ZM170.639 95.154C169.665 95.154 168.881 95.9373 168.881 96.9112C168.881 97.885 169.665 98.6683 170.639 98.6683C171.613 98.6683 172.396 97.885 172.396 96.9112C172.396 95.9373 171.613 95.154 170.639 95.154Z" fill="#3FB1B5"/>
<path d="M170.639 119.203C168.966 119.203 167.611 117.848 167.611 116.176C167.611 114.503 168.966 113.148 170.639 113.148C172.312 113.148 173.667 114.503 173.667 116.176C173.667 117.848 172.312 119.203 170.639 119.203ZM170.639 114.419C169.665 114.419 168.881 115.202 168.881 116.176C168.881 117.15 169.665 117.933 170.639 117.933C171.613 117.933 172.396 117.15 172.396 116.176C172.396 115.202 171.613 114.419 170.639 114.419Z" fill="#3FB1B5"/>
<path d="M109.019 168.255L118.569 154.643V168.255H109.019Z" fill="#3FB1B5"/>
<path d="M37.1906 86.6433C27.4075 93.0791 17.1373 96.1912 14.8927 93.3967C14.8504 93.3544 14.8292 93.312 14.7868 93.2485C14.321 92.5499 14.3633 91.5972 14.7868 90.4329C16.2479 86.601 22.283 80.6733 29.9485 75.6347C36.0471 71.6124 42.0609 68.8179 46.2325 67.9499C48.6465 67.463 50.4465 67.6112 51.3147 68.5427L51.5264 68.7967C53.5169 71.8452 47.1219 80.1017 37.1906 86.6433Z" fill="#FE5244"/>
<path d="M37.1908 86.6428C31.6216 90.3053 25.883 92.9093 21.5632 93.9255L2.22993 66.658C-0.459363 62.8473 0.430005 57.5759 4.26278 54.8872L21.6691 42.6507L11.8013 25.8626C10.3613 23.428 11.1872 20.2736 13.6435 18.8552C14.4482 18.3894 15.3164 18.1777 16.1846 18.1777C17.8575 18.1777 19.5092 19.0034 20.4832 20.5277L51.336 68.4998L51.5478 68.8385C53.5171 71.8447 47.1221 80.1012 37.1908 86.6428Z" fill="#E57281"/>
<path d="M27.1322 66.9749C26.8569 66.9749 26.5816 66.9537 26.3063 66.8902C25.2476 66.6785 24.337 66.0434 23.7653 65.1542L13.5798 49.9116C13.3893 49.6152 13.4739 49.2341 13.7492 49.0224C14.0457 48.8319 14.4269 48.9165 14.6386 49.1918L24.824 64.4345C25.2264 65.0484 25.8405 65.4718 26.5604 65.62C27.2804 65.7682 28.0216 65.62 28.6356 65.2178L31.0285 63.6512C32.299 62.8255 32.659 61.1319 31.8543 59.8616L21.076 43.1582C20.8854 42.8618 20.9701 42.4807 21.2665 42.2902C21.563 42.0997 21.9442 42.1844 22.1348 42.4808L32.9131 59.1842C34.0989 61.0472 33.5484 63.5241 31.7061 64.7097L29.3132 66.2763C28.678 66.742 27.9157 66.9749 27.1322 66.9749Z" fill="#9A3B82"/>
<path d="M19.234 72.0347C17.9211 72.0347 16.6294 71.3996 15.8459 70.2352C15.6553 69.9388 15.74 69.5578 16.0365 69.3461C16.3329 69.1555 16.7141 69.2402 16.9258 69.5366C17.7517 70.7856 19.4457 71.1456 20.7163 70.3411L22.8974 68.965C23.5115 68.5628 23.9561 67.9488 24.1044 67.2079C24.2526 66.4669 24.1256 65.7259 23.7232 65.112C23.5326 64.8156 23.6173 64.4345 23.9138 64.2228C24.2102 64.0323 24.5914 64.117 24.8032 64.4134C25.3961 65.3237 25.6078 66.4034 25.3749 67.4831C25.142 68.5416 24.5067 69.4519 23.5961 70.0447L21.4151 71.4208C20.7375 71.823 19.9751 72.0347 19.234 72.0347Z" fill="#9A3B82"/>
<path d="M11.4839 76.7778C10.2133 76.7778 8.96398 76.185 8.18049 75.063L2.39955 66.9124C2.1878 66.616 2.27251 66.2349 2.5478 66.0232C2.82308 65.8115 3.2254 65.8962 3.43716 66.1714L9.2181 74.322C10.0863 75.5287 11.7168 75.8463 12.945 75.063L12.9873 75.0418L14.999 73.9198C15.6343 73.5175 16.0578 72.9036 16.2272 72.1838C16.3966 71.4428 16.2484 70.7018 15.846 70.0667L5.87235 55.2475C5.68177 54.9511 5.74531 54.57 6.04176 54.3583C6.33822 54.1678 6.71937 54.2313 6.93113 54.5277L16.9048 69.347C17.5189 70.2785 17.7095 71.3793 17.4766 72.4378C17.2436 73.4963 16.6084 74.4067 15.6766 74.9783L15.6554 74.9994L13.6438 76.1215C12.945 76.5872 12.2038 76.7778 11.4839 76.7778Z" fill="#9A3B82"/>
<path d="M44.1362 57.3219L39.0753 49.4677C37.4024 46.8637 33.9084 46.1439 31.3462 47.8799L18.7891 56.3904C18.7891 56.3904 22.4313 62.9321 31.2826 57.7453L34.2472 62.4663C28.191 66.2982 26.4546 74.3641 30.3933 80.3554L44.1362 57.3219Z" fill="#E57281"/>
<path d="M30.3931 80.9899C30.1814 80.9899 29.9908 80.884 29.8637 80.6935C27.8732 77.6449 27.1745 74.0036 27.9579 70.447C28.6779 67.1021 30.6049 64.2229 33.3789 62.2752L31.0707 58.5916C28.0215 60.2641 25.2475 60.751 22.7911 60.0947C19.6783 59.2479 18.2807 56.7921 18.2172 56.7074L17.9419 56.1993L30.3084 47.5618C31.706 46.6303 33.3577 46.2916 34.9882 46.6303C36.6187 46.9691 38.0163 47.9217 38.9269 49.3401L43.9878 57.1944C44.1784 57.4907 44.0937 57.8718 43.7973 58.0623C43.5008 58.2529 43.1196 58.1682 42.9291 57.8718L37.8681 50.0176C37.1481 48.8956 36.047 48.1334 34.7341 47.8794C33.4424 47.6042 32.1084 47.8794 31.0284 48.6204L19.6571 56.5592C20.1653 57.2155 21.3088 58.4011 23.1299 58.888C25.3745 59.5019 28.0003 58.9303 30.9437 57.2155L31.4731 56.898L35.0941 62.6775L34.5647 63.0162C31.7907 64.7734 29.8637 67.5255 29.1649 70.7434C28.4662 73.9613 29.0802 77.2639 30.9013 80.016C31.0919 80.3124 31.0072 80.6935 30.7108 80.9052C30.6261 80.9475 30.5202 80.9899 30.3931 80.9899Z" fill="#9A3B82"/>
<path d="M37.1908 86.6436C31.6216 90.3061 25.883 92.9101 21.5632 93.9263L16.7563 87.1517C19.4456 83.6375 24.2525 79.4034 29.9487 75.6562C36.0473 71.6338 42.0611 68.8394 46.2327 67.9714C48.6467 67.4844 50.4466 67.6326 51.3148 68.5641L51.5266 68.8182C51.5478 68.8605 51.569 68.8817 51.5901 68.924C51.6113 68.9452 51.6113 68.9664 51.6325 69.0087C51.6536 69.051 51.6748 69.0722 51.696 69.1145C53.1359 72.3536 46.8045 80.2925 37.1908 86.6436Z" fill="#9A3B82"/>
<path d="M186.563 59.334V77.9428C186.563 83.3412 179.067 87.7023 169.856 87.7023C160.623 87.7023 153.148 83.3412 153.148 77.9428V59.334H186.563Z" fill="#E57281"/>
<path d="M158.039 84.8443C155.011 83.0872 153.126 80.6314 153.126 77.9428V59.334H186.563V64.4996C186.563 69.8557 183.302 74.6614 178.347 76.6726L158.039 84.8443Z" fill="#9A3B82"/>
<path d="M195.88 58.2327V58.5502C195.88 61.7681 193.275 64.3721 190.057 64.3721H186.224C184.932 69.58 180.231 73.4542 174.598 73.4542H165.112C159.5 73.4542 154.778 69.6012 153.508 64.3721H149.675C146.456 64.3721 143.852 61.7681 143.852 58.5502V58.2327C143.852 55.0148 146.456 52.4108 149.675 52.4108H153.148V47.8168C153.148 42.9053 156.769 38.8405 161.491 38.1631C162.528 39.8991 165.662 44.0485 172.057 43.8156C175.064 43.7097 177.86 43.1381 180.168 42.4607C182.942 41.6562 185.716 43.3498 186.414 45.9961C186.52 46.5889 186.584 47.1817 186.584 47.7956V52.3896H190.057C193.254 52.3896 195.88 55.0148 195.88 58.2327Z" fill="#E57281"/>
<path d="M189.231 52.3897H186.562V47.2876C186.562 46.843 186.499 46.3984 186.393 45.9962C185.694 43.3499 182.92 41.6562 180.146 42.4607C177.838 43.1382 175.064 43.7098 172.036 43.8156C165.641 44.0485 162.507 39.8991 161.469 38.1631C156.747 38.8406 153.126 42.9053 153.126 47.8168V52.4108H149.802C149.802 52.4108 145.99 38.6289 148.849 34.7335C151.665 30.9017 155.053 32.5741 155.053 32.5741C155.053 32.5741 153.02 21.0998 164.37 21.3115C175.699 21.5232 190.438 34.67 191.518 37.0834C193.212 40.7883 189.231 52.3897 189.231 52.3897Z" fill="#9A3B82"/>
<path d="M187.855 59.8417C187.558 59.8417 187.325 59.6088 187.325 59.3124C187.325 56.772 189.4 54.6973 191.941 54.6973C192.238 54.6973 192.471 54.9301 192.471 55.2265C192.471 55.5229 192.238 55.7558 191.941 55.7558C189.972 55.7558 188.384 57.3436 188.384 59.3124C188.384 59.6088 188.151 59.8417 187.855 59.8417Z" fill="#9A3B82"/>
<path d="M151.898 59.8417C151.602 59.8417 151.369 59.6088 151.369 59.3124C151.369 57.3436 149.78 55.7558 147.811 55.7558C147.515 55.7558 147.282 55.5229 147.282 55.2265C147.282 54.9301 147.515 54.6973 147.811 54.6973C150.352 54.6973 152.427 56.772 152.427 59.3124C152.427 59.6088 152.194 59.8417 151.898 59.8417Z" fill="#9A3B82"/>
<path d="M181.226 48.3458C181.121 48.3458 181.015 48.3034 180.909 48.2399C180.803 48.1552 178.071 46.2287 174.577 47.6895C174.302 47.7954 174.006 47.6683 173.878 47.3931C173.773 47.1179 173.9 46.8215 174.175 46.6945C178.241 45.022 181.396 47.2661 181.523 47.3719C181.756 47.5413 181.819 47.88 181.629 48.1129C181.544 48.2611 181.396 48.3458 181.226 48.3458Z" fill="#9A3B82"/>
<path d="M158.272 48.3461C158.103 48.3461 157.955 48.2614 157.849 48.1344C157.679 47.9015 157.722 47.5628 157.955 47.3934C158.082 47.2876 161.258 45.0435 165.303 46.716C165.578 46.8218 165.705 47.1394 165.599 47.4146C165.493 47.6898 165.175 47.8168 164.9 47.711C161.385 46.2502 158.611 48.2403 158.569 48.2614C158.484 48.3038 158.378 48.3461 158.272 48.3461Z" fill="#9A3B82"/>
<path d="M171.189 66.1711C170.363 66.1711 169.41 66.0017 168.33 65.5995C168.055 65.4936 167.907 65.1972 168.013 64.922C168.119 64.6468 168.415 64.4986 168.69 64.6045C173.137 66.2558 174.598 63.3342 174.662 63.2072C174.789 62.9532 175.107 62.8261 175.361 62.9531C175.615 63.0802 175.742 63.3977 175.615 63.6518C175.594 63.6941 174.387 66.1711 171.189 66.1711Z" fill="#9A3B82"/>
<path d="M169.686 62.1912C169.199 62.1912 168.67 62.1912 168.225 62.1488C167.928 62.1277 167.717 61.8736 167.738 61.5772C167.759 61.2808 168.013 61.0692 168.31 61.0903C169.559 61.175 171.486 61.0903 171.507 61.0903C171.804 61.0692 172.036 61.302 172.058 61.5984C172.079 61.8948 171.846 62.1277 171.549 62.1488C171.507 62.1488 170.639 62.1912 169.686 62.1912Z" fill="#9A3B82"/>
<path d="M177.817 56.6445C178.402 56.6445 178.876 55.8484 178.876 54.8662C178.876 53.8841 178.402 53.0879 177.817 53.0879C177.232 53.0879 176.758 53.8841 176.758 54.8662C176.758 55.8484 177.232 56.6445 177.817 56.6445Z" fill="#9A3B82"/>
<path d="M162.634 56.6445C163.219 56.6445 163.693 55.8484 163.693 54.8662C163.693 53.8841 163.219 53.0879 162.634 53.0879C162.049 53.0879 161.575 53.8841 161.575 54.8662C161.575 55.8484 162.049 56.6445 162.634 56.6445Z" fill="#9A3B82"/>
<path d="M165.154 61.3866H158.484C156.917 61.3866 155.625 60.0952 155.625 58.5286V51.86C155.625 50.2933 156.917 49.002 158.484 49.002H165.154C166.721 49.002 168.013 50.2933 168.013 51.86V58.5286C168.034 59.2696 167.737 59.9894 167.208 60.5186C166.657 61.0902 165.937 61.3866 165.154 61.3866ZM158.484 50.0605C157.488 50.0605 156.684 50.8649 156.684 51.86V58.5286C156.684 59.5236 157.488 60.3281 158.484 60.3281H165.154C165.641 60.3281 166.107 60.1376 166.446 59.7777C166.785 59.4389 166.954 58.9944 166.954 58.5286V51.86C166.954 50.8649 166.149 50.0605 165.154 50.0605H158.484Z" fill="white"/>
<path d="M181.48 61.3866H174.81C173.243 61.3866 171.951 60.0952 171.951 58.5286V51.86C171.951 50.2933 173.243 49.002 174.81 49.002H181.48C183.047 49.002 184.339 50.2933 184.339 51.86V58.5286C184.339 60.0952 183.047 61.3866 181.48 61.3866ZM174.81 50.0605C173.815 50.0605 173.01 50.8649 173.01 51.86V58.5286C173.01 59.5236 173.815 60.3281 174.81 60.3281H181.48C182.475 60.3281 183.28 59.5236 183.28 58.5286V51.86C183.28 50.8649 182.475 50.0605 181.48 50.0605H174.81Z" fill="white"/>
<path d="M172.481 53.4053H167.504V54.4638H172.481V53.4053Z" fill="white"/>
<path d="M183.239 147.063H160.094C157.637 147.063 155.647 145.073 155.647 142.617V130.317C155.647 127.861 157.637 125.871 160.094 125.871H183.239C185.695 125.871 187.686 127.861 187.686 130.317V142.617C187.686 145.073 185.695 147.063 183.239 147.063ZM160.094 127.141C158.336 127.141 156.918 128.56 156.918 130.317V142.617C156.918 144.374 158.336 145.792 160.094 145.792H183.239C184.996 145.792 186.415 144.374 186.415 142.617V130.317C186.415 128.56 184.996 127.141 183.239 127.141H160.094Z" fill="#66B0F0"/>
<path d="M172.248 141.474H164.413C163.164 141.474 162.147 140.457 162.147 139.208V133.725C162.147 132.476 163.164 131.46 164.413 131.46H172.248C173.498 131.46 174.514 132.476 174.514 133.725V139.208C174.514 140.457 173.498 141.474 172.248 141.474Z" fill="#66B0F0"/>
<path d="M179.872 141.325L177.458 139.716C176.801 139.272 176.399 138.51 176.399 137.684V135.271C176.399 134.445 176.801 133.683 177.458 133.238L179.872 131.629C180.443 131.248 181.185 131.672 181.185 132.391V140.584C181.206 141.283 180.443 141.706 179.872 141.325Z" fill="#66B0F0"/>
</svg>
