<svg width="94" height="154" viewBox="0 0 94 154" fill="none" xmlns="http://www.w3.org/2000/svg">
<path d="M46.695 111.554V153.997H0.0698242V91.5293C0.982416 94.5884 10.7409 100.966 22.8535 106.296C35.7439 111.989 46.4253 114.333 46.695 111.554Z" fill="#66B0F0"/>
<path d="M46.6951 110.424C46.4151 113.204 35.744 110.85 22.8537 105.167C10.7411 99.8265 0.982595 93.4491 0.0700031 90.4003C0.00778097 90.2033 -0.0129635 90.0166 0.00777718 89.8507C0.277406 87.0716 10.9589 89.4255 23.8492 95.1082C36.7396 100.791 46.9751 107.645 46.6951 110.424Z" fill="#9A3B82"/>
<path d="M19.1014 49.5437C20.211 47.2623 22.5236 45.8105 25.0644 45.8105H32.3962L32.7799 75.2817L37.8925 102.368L39.5206 110.975C35.2066 110.021 29.3162 108.019 22.8658 105.178C19.2155 103.571 14.6421 101.186 11.5933 99.5057V63.6467C11.5933 63.1594 11.6866 62.672 11.8525 62.2157L19.1014 49.5437Z" fill="#A0505A"/>
<path d="M39.5079 110.975C35.1939 110.021 29.3035 108.019 22.8531 105.178C19.2028 103.571 14.6295 101.186 11.5806 99.5056V90.4941C14.9095 91.5622 19.8354 93.3459 23.8487 95.1088C29.262 97.4938 33.9909 99.9515 37.8902 102.368L39.5079 110.975Z" fill="#73325A"/>
<path d="M66.8134 12.6796L27.8105 84.4391C26.369 87.0938 22.3972 87.7263 18.9439 85.8494C15.4905 83.9724 13.8624 80.3015 15.3039 77.6365L54.3068 5.87695L66.8134 12.6796Z" fill="white"/>
<path fill-rule="evenodd" clip-rule="evenodd" d="M54.2028 5.52344L67.1649 12.5738L28.0383 84.561C27.2711 85.9738 25.8386 86.8327 24.1723 87.0978C22.5064 87.3629 20.5926 87.0388 18.82 86.0753C15.2997 84.162 13.5384 80.3537 15.0757 77.5113L15.076 77.5108L54.2028 5.52344ZM54.4107 6.22675L15.5318 77.758C14.1863 80.2457 15.6813 83.7793 19.0676 85.6198C20.7483 86.5333 22.5471 86.8314 24.0908 86.5858C25.6342 86.3402 26.9083 85.5555 27.5826 84.3136L66.4618 12.7816L54.4107 6.22675Z" fill="#FFCF2D"/>
<path d="M66.8063 12.6959C68.2503 10.0391 66.6225 6.36451 63.1705 4.4885C59.7185 2.6125 55.7495 3.24547 54.3055 5.9023C52.8615 8.55912 54.4893 12.2337 57.9413 14.1097C61.3934 15.9857 65.3623 15.3527 66.8063 12.6959Z" fill="#66B0F0"/>
<path fill-rule="evenodd" clip-rule="evenodd" d="M54.5328 6.02564C53.1854 8.50481 54.6794 12.0417 58.0647 13.8814C61.4499 15.7212 65.2306 15.0508 66.5781 12.5717C67.9255 10.0925 66.4315 6.55554 63.0462 4.71583C59.661 2.87612 55.8802 3.54646 54.5328 6.02564ZM57.8171 14.337C54.2983 12.4247 52.5367 8.6125 54.0772 5.77806C55.6178 2.94361 59.775 2.34799 63.2938 4.26029C66.8126 6.17258 68.5742 9.98479 67.0336 12.8192C65.4931 15.6537 61.3359 16.2493 57.8171 14.337Z" fill="#FFCF2D"/>
<path d="M41.333 40.1482L59.7611 25.1016L59.4708 30.4524L65.3715 31.9249L51.9315 40.2208C55.5404 39.5986 59.8856 39.0905 63.4633 39.3705C67.7256 39.7023 66.2945 44.6903 64.6974 48.9523C68.4307 48.5893 80.9478 41.0089 85.6663 42.44C88.5492 43.3111 87.5122 49.1908 86.6826 52.4365C87.8855 52.4988 93.9729 52.4262 93.9729 52.4262L90.7581 55.3608L92.5211 58.2955C85.6767 58.5963 85.5937 57.5178 86.4544 52.6647C86.5996 47.3864 80.7507 52.4573 68.2959 55.4334C62.1256 56.906 62.9241 52.8928 64.4485 48.7138C63.8367 46.7953 59.2634 44.711 44.5686 48.5478L41.333 40.1482Z" fill="#FE5244"/>
<path d="M41.6026 49.3141C44.6095 49.3141 47.0471 46.8767 47.0471 43.87C47.0471 40.8632 44.6095 38.4258 41.6026 38.4258C38.5958 38.4258 36.1582 40.8632 36.1582 43.87C36.1582 46.8767 38.5958 49.3141 41.6026 49.3141Z" fill="white"/>
<path fill-rule="evenodd" clip-rule="evenodd" d="M41.6031 38.6845C38.7394 38.6845 36.4179 41.0059 36.4179 43.8695C36.4179 46.733 38.7394 49.0544 41.6031 49.0544C44.4668 49.0544 46.7883 46.733 46.7883 43.8695C46.7883 41.0059 44.4668 38.6845 41.6031 38.6845ZM35.8994 43.8695C35.8994 40.7195 38.453 38.166 41.6031 38.166C44.7532 38.166 47.3068 40.7195 47.3068 43.8695C47.3068 47.0194 44.7532 49.5729 41.6031 49.5729C38.453 49.5729 35.8994 47.0194 35.8994 43.8695Z" fill="#FE5244"/>
<path d="M39.7259 45.8105V46.1528C39.7259 49.637 36.9052 52.468 33.4104 52.468H26.7837V45.8105H39.7259Z" fill="#A0505A"/>
<path d="M47.7944 58.5959L46.0418 62.7024L43.9988 67.5037L42.8892 70.1065L41.1988 74.0782C41.1573 74.1819 41.0951 74.296 41.0433 74.3893C41.0433 74.3997 41.0329 74.3997 41.0329 74.41C40.4936 75.3433 39.4462 75.924 38.2951 75.924H24.8655C23.2373 75.924 22.1277 74.3789 22.7292 72.9582L23.704 70.6665L25.8507 65.6267L27.6966 61.2817L29.3247 57.4656C29.8018 56.3456 30.9529 55.6094 32.2388 55.6094H45.6684C47.2862 55.6301 48.3958 57.1752 47.7944 58.5959Z" fill="#A0505A"/>
<path fill-rule="evenodd" clip-rule="evenodd" d="M30.4973 60.5654C29.7008 60.5654 28.9616 60.9066 28.45 61.4751C28.3542 61.5815 28.1903 61.5901 28.0839 61.4943C27.9774 61.3985 27.9688 61.2346 28.0646 61.1282C28.673 60.4522 29.5516 60.0469 30.4973 60.0469H43.3254C44.8301 60.0469 45.9227 61.3444 45.7713 62.7297C45.7558 62.872 45.6278 62.9748 45.4854 62.9593C45.3431 62.9437 45.2403 62.8157 45.2559 62.6734C45.3742 61.5907 44.5171 60.5654 43.3254 60.5654H30.4973Z" fill="#73325A"/>
<path fill-rule="evenodd" clip-rule="evenodd" d="M28.6406 65.0341C27.8899 65.0341 27.1988 65.3284 26.698 65.8293C26.5967 65.9305 26.4326 65.9305 26.3313 65.8293C26.2301 65.728 26.2301 65.5639 26.3313 65.4626C26.9297 64.8643 27.7527 64.5156 28.6406 64.5156H41.4687C43.1106 64.5156 44.2537 66.0457 43.8341 67.561C43.7959 67.699 43.653 67.7799 43.5151 67.7416C43.3771 67.7034 43.2962 67.5606 43.3344 67.4226C43.6614 66.2417 42.772 65.0341 41.4687 65.0341H28.6406Z" fill="#73325A"/>
<path fill-rule="evenodd" clip-rule="evenodd" d="M26.577 70.1162C25.8554 70.1162 25.1826 70.3913 24.6808 70.8647C24.5767 70.963 24.4126 70.9582 24.3143 70.854C24.2161 70.7499 24.2209 70.5858 24.325 70.4875C24.9225 69.9239 25.7223 69.5977 26.577 69.5977H39.4051C41.0934 69.5977 42.2718 71.2425 41.7238 72.8048C41.6764 72.9399 41.5285 73.0111 41.3934 72.9637C41.2583 72.9163 41.1872 72.7683 41.2345 72.6332C41.6614 71.4164 40.7449 70.1162 39.4051 70.1162H26.577Z" fill="#73325A"/>
</svg>
