<svg width="81" height="90" viewBox="0 0 81 90" fill="none" xmlns="http://www.w3.org/2000/svg">
<path fill-rule="evenodd" clip-rule="evenodd" d="M29.4827 58.1296L26.3507 51.258L26.9169 51L30.0897 57.961L30.0954 58.0094C30.4162 60.7416 28.4689 63.2078 25.738 63.5395L25.7367 63.5396C23.3469 63.8202 21.6428 65.9876 21.9235 68.3791C21.9235 68.3792 21.9235 68.3793 21.9235 68.3793L22.3798 72.2157L21.7619 72.2892L21.3056 68.4519C20.9849 65.721 22.9308 63.243 25.6635 62.9218C28.0393 62.6329 29.7354 60.501 29.4827 58.1296Z" fill="#FFCF2D"/>
<path d="M63.1174 28.9063L79.7308 2.98167L22.5901 2.52539L3.87158 52.363L34.7752 50.9112L63.1174 28.9063Z" fill="#FE5244"/>
<path fill-rule="evenodd" clip-rule="evenodd" d="M20.4575 0.0449219L80.4185 0.721416L80.4115 1.34357L20.8852 0.671979L1.12378 52.7744L0.541992 52.5538L20.4575 0.0449219Z" fill="#FFCF2D"/>
<path d="M62.0909 25.019C65.4094 30.712 59.768 40.1901 49.4806 46.1839C39.1932 52.1777 28.1695 52.4162 24.851 46.7231C24.3947 45.9454 24.1147 45.1054 23.9799 44.2032C23.1502 38.5102 28.5739 30.7328 37.4613 25.5582C46.3487 20.3836 55.7858 19.4918 60.328 23.0176C61.0435 23.5775 61.6346 24.2412 62.0909 25.019Z" fill="#66B0F0"/>
<path fill-rule="evenodd" clip-rule="evenodd" d="M50.5566 21.3331C46.5679 21.757 42.0285 23.2573 37.6175 25.8256C33.2067 28.3937 29.6637 31.6033 27.3294 34.8658C24.9903 38.135 23.889 41.4213 24.2873 44.1563C24.4169 45.023 24.6848 45.8243 25.119 46.5642L25.1194 46.565C26.6957 49.2692 30.1385 50.6197 34.5453 50.5236C38.9399 50.4277 44.2167 48.8891 49.3236 45.9136C54.4305 42.9382 58.3707 39.105 60.6204 35.328C62.8762 31.5406 63.3981 27.8788 61.8221 25.1746C61.3867 24.4326 60.8224 23.7983 60.1362 23.2613C57.9541 21.568 54.5535 20.9085 50.5566 21.3331ZM50.4909 20.7144C54.5696 20.2811 58.1583 20.9384 60.5184 22.7704L60.5194 22.7711C61.2641 23.3539 61.8819 24.0468 62.359 24.8601L62.3594 24.8608C64.1016 27.8497 63.4619 31.7732 61.155 35.6464C58.8417 39.5301 54.8174 43.4329 49.6369 46.4512C44.4564 49.4695 39.0776 51.047 34.5589 51.1456C30.0526 51.2439 26.3244 49.8673 24.5821 46.8787C24.1038 46.0634 23.8119 45.1851 23.6718 44.2477L23.6717 44.2466C23.2406 41.2886 24.4363 37.84 26.8234 34.5038C29.2154 31.1607 32.8279 27.8943 37.3045 25.2879C41.7809 22.6816 46.4037 21.1487 50.4909 20.7144Z" fill="white"/>
<path fill-rule="evenodd" clip-rule="evenodd" d="M49.757 16.6464C45.3506 16.7438 40.0654 18.2857 34.9575 21.2596C29.8445 24.2386 25.8974 28.0775 23.6424 31.8634C21.3821 35.6582 20.8505 39.342 22.4406 42.0699L22.4407 42.07L23.729 44.2813C23.7269 44.2666 23.7248 44.2519 23.7228 44.2372L23.9796 44.2018L23.723 44.2388C23.3001 41.2997 24.4877 37.8647 26.8695 34.5341C29.2553 31.1977 32.8595 27.936 37.3306 25.3328C41.8016 22.7296 46.4175 21.1995 50.4965 20.7661C54.5683 20.3334 58.1414 20.9909 60.4867 22.8114L60.4875 22.812C60.4987 22.8208 60.5099 22.8296 60.5211 22.8385L59.2326 20.6269C57.6426 17.8991 54.1736 16.5488 49.757 16.6464ZM62.3143 24.8864L59.6806 20.3658L59.6806 20.3658C57.9521 17.4005 54.2448 16.0287 49.7455 16.1281C45.2359 16.2277 39.8657 17.802 34.6966 20.8115L34.6965 20.8116C29.5221 23.8263 25.5048 27.7233 23.1969 31.5981C20.8942 35.4641 20.2643 39.3658 21.9926 42.331C21.9927 42.331 21.9927 42.331 21.9927 42.331L24.6051 46.815C24.6124 46.8277 24.6197 46.8403 24.6271 46.8529L25.0748 46.5912L25.0744 46.5905C25.0674 46.5786 25.0604 46.5667 25.0535 46.5548C24.6266 45.8168 24.3544 45.0213 24.2365 44.1664L24.2363 44.1657L24.2362 44.1649C23.8399 41.4109 24.9493 38.1106 27.2912 34.8357C29.6291 31.5665 33.1753 28.3522 37.5915 25.7809C42.008 23.2094 46.5543 21.7064 50.5512 21.2817C54.5551 20.8563 57.9716 21.5157 60.1685 23.2208C60.8595 23.7616 61.4282 24.4008 61.8671 25.1488L62.3147 24.8871L62.3143 24.8864Z" fill="white"/>
<path d="M21.1792 86.2322C20.7747 87.4248 20.3392 88.5655 19.8829 89.6128C18.9599 89.6025 18.0266 89.4469 17.114 89.1358C16.191 88.8247 15.3614 88.3892 14.6147 87.8396C14.8844 86.73 15.2162 85.5582 15.6207 84.3657C17.6325 78.3926 20.4947 73.975 22.0296 74.4831C23.5644 75.0016 23.1807 80.2592 21.1792 86.2322Z" fill="#FFCF2D"/>
<path fill-rule="evenodd" clip-rule="evenodd" d="M22.2368 72.3038C21.7156 72.3038 21.2931 72.7263 21.2931 73.2475C21.2931 73.7687 21.7156 74.1912 22.2368 74.1912C22.758 74.1912 23.1805 73.7687 23.1805 73.2475C23.1805 72.7263 22.758 72.3038 22.2368 72.3038ZM20.6709 73.2475C20.6709 72.3827 21.372 71.6816 22.2368 71.6816C23.1016 71.6816 23.8027 72.3827 23.8027 73.2475C23.8027 74.1123 23.1016 74.8134 22.2368 74.8134C21.372 74.8134 20.6709 74.1123 20.6709 73.2475Z" fill="#66B0F0"/>
</svg>
