<svg width="52" height="90" viewBox="0 0 52 90" fill="none" xmlns="http://www.w3.org/2000/svg">
<path d="M51.1745 51.1562V90.0017H6.28125V67.1154C7.25606 69.6664 18.6842 68.0384 30.8797 63.3719C41.8516 59.1721 50.3242 54.008 51.1745 51.1562Z" fill="#FE5244"/>
<path d="M51.1748 50.0259C50.314 52.8776 41.8518 58.0419 30.8696 62.2417C18.6844 66.9081 7.2563 68.5362 6.27112 65.9852C5.28593 63.4342 15.1378 57.6582 27.3333 52.9917C39.5185 48.3253 50.2 46.6143 51.1748 49.1653C51.2785 49.4245 51.2785 49.7148 51.1748 50.0259Z" fill="#66B0F0"/>
<path d="M41.6654 24.2667V57.1806L39.1868 58.4354C36.6772 59.659 33.8668 60.8723 30.8802 62.013C25.3943 64.1181 20.0535 65.601 15.7602 66.3683L18.2283 56.6725L22.2521 40.8481C20.3439 40.8481 18.5395 39.9978 17.3261 38.5252L0.806152 19.735C3.63726 17.1529 7.86836 20.6683 7.86836 20.6683L6.2817 12.5695C5.90837 10.651 6.46837 8.66003 7.78541 7.21862L12.8046 1.71221C13.8002 0.623371 15.5943 1.04853 16.0091 2.45883L19.5765 14.7679C19.5765 14.7679 28.4328 21.529 30.092 21.529C31.9691 21.529 32.6224 20.0047 29.1172 14.996C26.4832 11.2318 29.1172 8.48374 29.1172 8.48374L37.6935 15.7012C40.2135 17.8373 41.6654 20.9691 41.6654 24.2667Z" fill="white"/>
<path fill-rule="evenodd" clip-rule="evenodd" d="M12.9962 1.88663C12.9961 1.88671 12.9961 1.88679 12.996 1.88687L7.97681 7.39322C6.7152 8.77397 6.17857 10.6816 6.53615 12.5195C6.53616 12.5195 6.53618 12.5196 6.53619 12.5197L8.26278 21.3328L7.70276 20.8675L7.70069 20.8658C7.69902 20.8645 7.69634 20.8623 7.69268 20.8593C7.68536 20.8533 7.6741 20.8443 7.65908 20.8324C7.62905 20.8085 7.58399 20.7734 7.52529 20.7293C7.40784 20.6411 7.23603 20.5171 7.02081 20.3759C6.58947 20.093 5.98821 19.7439 5.3039 19.4743C3.99291 18.9579 2.44588 18.7559 1.17477 19.7614L17.5236 38.3569L17.5262 38.3601C18.6903 39.7728 20.4213 40.5886 22.2521 40.5886H22.5855L18.4796 56.7361L16.1111 66.0405C20.3167 65.2575 25.4825 63.8063 30.7873 61.7707L30.7877 61.7706C33.7673 60.6326 36.57 59.4226 39.0715 58.2029C39.0721 58.2027 39.0727 58.2024 39.0732 58.2021L41.4061 57.021V24.2664C41.4061 21.0453 39.9881 17.9861 37.5264 15.8991C37.5262 15.8989 37.526 15.8988 37.5259 15.8986L29.1497 8.8496C29.0964 8.91918 29.0328 9.00738 28.9642 9.113C28.7691 9.41298 28.5348 9.85051 28.3788 10.3989C28.0697 11.4856 28.0597 13.0323 29.3297 14.8471C30.2109 16.1064 30.8358 17.1537 31.2465 18.0184C31.6555 18.8797 31.8599 19.5764 31.882 20.1302C31.9045 20.6927 31.7377 21.1276 31.3887 21.413C31.0519 21.6884 30.5889 21.788 30.0921 21.788C29.8216 21.788 29.4548 21.6579 29.0553 21.4737C28.6425 21.2834 28.1517 21.0141 27.6163 20.695C26.5447 20.0564 25.2762 19.2072 24.0637 18.3608C22.8503 17.5138 21.6893 16.6671 20.832 16.0324C20.4032 15.715 20.0502 15.4504 19.8043 15.2652C19.6813 15.1726 19.5852 15.0997 19.5197 15.0501C19.4869 15.0252 19.4618 15.0062 19.4449 14.9933L19.4193 14.9737C19.4192 14.9737 19.4192 14.9737 19.5765 14.7676L19.4192 14.9737L19.3513 14.9218L15.7604 2.53172C15.7603 2.53149 15.7602 2.53127 15.7602 2.53104C15.4014 1.3131 13.854 0.948855 12.9962 1.88663ZM19.8017 14.6132L16.2581 2.3864L16.2578 2.38542C15.7866 0.783396 13.7465 0.297592 12.6133 1.53701L12.613 1.5373L7.59401 7.04349C6.22159 8.54551 5.63821 10.6197 6.02722 12.6187L7.4857 20.0633C7.42929 20.0247 7.36905 19.9842 7.30522 19.9424C6.85476 19.6469 6.22129 19.2785 5.49395 18.9919C4.04905 18.4228 2.15732 18.1516 0.631439 19.5432L0.443359 19.7148L17.1287 38.6931C18.3208 40.138 20.0603 41.0063 21.9207 41.0988L17.9771 56.6083L15.4097 66.6941L15.8058 66.6233C20.1173 65.8527 25.4738 64.365 30.9728 62.2549C30.9728 62.2549 30.9728 62.2549 30.9728 62.2549L30.8802 62.0127L30.9731 62.2548C30.973 62.2548 30.9729 62.2549 30.9728 62.2549C33.9658 61.1118 36.7833 59.8955 39.3005 58.6682L39.3022 58.6673L39.304 58.6664L41.9246 57.3397V24.2664C41.9246 20.8925 40.4392 17.6885 37.8612 15.5031L29.0982 8.12864L28.9301 8.30408L29.1172 8.48347C28.9301 8.30408 28.93 8.3042 28.9298 8.30433L28.9288 8.30546L28.9265 8.30785C28.9247 8.30978 28.9222 8.31239 28.9192 8.31567C28.9132 8.32223 28.9048 8.33146 28.8943 8.34332C28.8732 8.36704 28.8438 8.40129 28.8078 8.44564C28.7359 8.53431 28.6379 8.66366 28.5295 8.83034C28.313 9.16324 28.0533 9.64798 27.8801 10.2571C27.5307 11.4855 27.5407 13.1949 28.9048 15.1444C29.7761 16.3894 30.384 17.4109 30.7781 18.2408C31.1737 19.0739 31.3458 19.6974 31.3639 20.1508C31.3817 20.5955 31.2523 20.8547 31.0604 21.0117C30.8562 21.1786 30.5337 21.2695 30.0921 21.2695C29.9477 21.2695 29.6747 21.1883 29.2724 21.0028C28.8832 20.8234 28.4099 20.5644 27.8817 20.2496C26.8261 19.6205 25.5694 18.7795 24.3605 17.9356C23.1523 17.0923 21.9955 16.2487 21.1405 15.6157C20.713 15.2992 20.3612 15.0356 20.1163 14.8511C19.9938 14.7588 19.8981 14.6864 19.8331 14.637C19.8217 14.6283 19.8112 14.6204 19.8017 14.6132Z" fill="#FFCF2D"/>
<path fill-rule="evenodd" clip-rule="evenodd" d="M9.84326 4.59752C10.9368 3.39711 12.8524 3.86666 13.3017 5.41539L16.7114 17.1789L22.9213 22.1466L22.5974 22.5515L16.2591 17.4811L12.8037 5.55983C12.8037 5.55982 12.8037 5.55985 12.8037 5.55983C12.4648 4.3917 11.0412 4.05239 10.2266 4.94668L9.84326 4.59752Z" fill="#FFCF2D"/>
<path fill-rule="evenodd" clip-rule="evenodd" d="M6.84619 8.06121C7.88532 6.91463 9.77173 7.35737 10.2013 8.83706L13.4248 19.9692L18.8167 24.3564L18.4894 24.7586L12.9718 20.2691L9.70338 8.98162C9.38632 7.88958 7.99571 7.56495 7.23041 8.40939L6.84619 8.06121Z" fill="#FFCF2D"/>
<path fill-rule="evenodd" clip-rule="evenodd" d="M8.02408 20.4805L13.9974 25.4891L13.6642 25.8864L7.69092 20.8778L8.02408 20.4805Z" fill="#FFCF2D"/>
<path fill-rule="evenodd" clip-rule="evenodd" d="M29.2307 41.1084H22.2515V40.5898H29.2307V41.1084Z" fill="#FFCF2D"/>
<path d="M41.6651 48.6973V57.3976C38.5748 59.036 34.8933 60.6952 30.88 62.2403C25.3837 64.3454 20.043 65.8283 15.7393 66.5957L18.2281 56.8895C20.9867 55.5621 24.077 54.2348 27.3437 52.9904C32.6222 50.9786 37.6207 49.5061 41.6651 48.6973Z" fill="#FFCF2D"/>
</svg>
