<svg width="97" height="79" viewBox="0 0 97 79" fill="none" xmlns="http://www.w3.org/2000/svg">
<path d="M78.7784 41.0289L44.2555 76.4316L4.4541 32.5567L47.8955 1.98633L78.7784 41.0289Z" fill="#3FB1B5"/>
<path fill-rule="evenodd" clip-rule="evenodd" d="M1.61426 32.4115L47.12 0.50946L46.7628 0L0.677734 32.3082L42.6775 78.3421L43.1372 77.9228L1.61426 32.4115Z" fill="#FFCF2D"/>
<path fill-rule="evenodd" clip-rule="evenodd" d="M54.7641 45.4712C54.1566 41.3679 50.3422 38.5204 46.2299 39.1277L43.6269 39.5114L43.5361 38.8959L46.139 38.5122C46.139 38.5122 46.139 38.5122 46.139 38.5122C50.5926 37.8545 54.722 40.9385 55.3796 45.38L55.3797 45.3804L57.6508 60.8521C57.6508 60.8522 57.6508 60.8521 57.6508 60.8521C58.3878 65.8611 63.7653 68.7287 68.3359 66.5381L68.3361 66.538L79.1939 61.3427L79.4624 61.9039L68.6048 67.0992" fill="#FFCF2D"/>
<path d="M93.1722 64.59C94.2819 65.1914 95.3293 65.8136 96.2833 66.4358C96.1174 67.338 95.8063 68.2298 95.35 69.0905C94.8937 69.9408 94.3129 70.6978 93.6492 71.3304C92.6018 70.8741 91.5026 70.3453 90.3929 69.7438C84.8448 66.7469 80.9766 63.1693 81.744 61.7486C82.5114 60.328 87.624 61.5931 93.1722 64.59Z" fill="#FFCF2D"/>
<path fill-rule="evenodd" clip-rule="evenodd" d="M80.5625 60.3898C80.0413 60.3898 79.6188 60.8123 79.6188 61.3334C79.6188 61.8546 80.0413 62.2771 80.5625 62.2771C81.0837 62.2771 81.5062 61.8546 81.5062 61.3334C81.5062 60.8123 81.0837 60.3898 80.5625 60.3898ZM78.9966 61.3334C78.9966 60.4686 79.6977 59.7676 80.5625 59.7676C81.4274 59.7676 82.1285 60.4686 82.1285 61.3334C82.1285 62.1982 81.4274 62.8993 80.5625 62.8993C79.6977 62.8993 78.9966 62.1982 78.9966 61.3334Z" fill="#66B0F0"/>
</svg>
