<svg width="59" height="161" viewBox="0 0 59 161" fill="none" xmlns="http://www.w3.org/2000/svg">
<path d="M58.2271 160.998H0.391602V103.663C0.391602 106.11 9.90121 108.091 21.6405 108.091C33.3797 108.091 42.8893 106.11 42.8893 103.663V103.652L58.2271 160.998Z" fill="#3FB1B5"/>
<path d="M42.7339 102.523C42.7339 104.981 33.328 106.961 21.7131 106.961C10.0983 106.961 0.692383 104.981 0.692383 102.533V102.523C0.723494 100.086 10.1191 98.1055 21.7131 98.1055C33.3072 98.1055 42.7131 100.086 42.7339 102.523Z" fill="#66B0F0"/>
<path d="M42.7332 102.566C42.6606 104.993 33.2755 106.963 21.7125 106.963C19.4829 106.963 17.3466 106.89 15.3347 106.756V85.4248H4.3629C2.9629 85.4248 1.83252 84.2945 1.83252 82.8946V81.1835C1.83252 80.4162 2.17474 79.7318 2.714 79.2651C2.17474 78.7985 1.83252 78.1141 1.83252 77.3467V75.6357C1.83252 74.9616 2.10215 74.3394 2.53771 73.8935C2.10215 73.4372 1.83252 72.8254 1.83252 72.1514V70.4404C1.83252 69.7456 2.11253 69.113 2.56883 68.6464C2.11253 68.1901 1.83252 67.5575 1.83252 66.8627V63.7622C1.83252 62.3622 2.9629 61.2319 4.3629 61.2319H18.3732C18.8399 60.9623 19.597 60.0083 18.311 59.4483L15.3036 58.7431C12.9184 57.5506 11.4044 55.57 11.4044 52.8945H21.9821C23.7555 52.8945 25.3421 54.0145 25.9436 55.684L42.474 101.83L42.7332 102.566Z" fill="#E57281"/>
<path d="M42.7848 102.587C42.7537 102.555 42.7329 102.535 42.7329 102.535C42.7329 104.982 33.327 106.963 21.7122 106.963C19.4826 106.963 17.3463 106.89 15.3345 106.755V98.3246C17.3463 98.1898 19.493 98.1172 21.7122 98.1172C32.1863 98.1172 40.8766 99.7349 42.4737 101.84C42.5151 101.892 42.6292 102.172 42.7848 102.587Z" fill="#9A3B82"/>
<path d="M18.6126 32.4023V40.8123C18.6126 45.3854 14.9104 49.0875 10.337 49.0875C5.76372 49.0875 2.06152 45.3854 2.06152 40.8123V32.4023C2.06152 34.4556 5.76372 36.1148 10.337 36.1148C14.9104 36.1148 18.6126 34.4556 18.6126 32.4023Z" fill="white"/>
<path d="M10.337 36.1143C14.9075 36.1143 18.6126 34.4522 18.6126 32.4019C18.6126 30.3516 14.9075 28.6895 10.337 28.6895C5.76659 28.6895 2.06152 30.3516 2.06152 32.4019C2.06152 34.4522 5.76659 36.1143 10.337 36.1143Z" fill="#FFCF2D"/>
<path fill-rule="evenodd" clip-rule="evenodd" d="M1.75049 17.7188H18.9238V40.8021C18.9238 43.9874 17.1908 46.7632 14.6201 48.2474L14.4646 47.978C14.4646 47.984 14.4646 47.99 14.4646 47.9961L14.6088 48.248C13.3505 48.9685 11.8871 49.3883 10.3371 49.3883C8.81044 49.3883 7.37676 48.9911 6.13006 48.2891H6.12638L6.08084 48.2628C6.07509 48.2598 6.06956 48.2567 6.06426 48.2535C6.06187 48.2521 6.05956 48.2507 6.0573 48.2492L6.05418 48.2474C3.48353 46.7632 1.75049 43.9874 1.75049 40.8021V17.7188ZM14.3803 47.6669C16.7273 46.2792 18.3016 43.7262 18.3016 40.8021V18.3409H2.37271V40.8021C2.37271 43.7335 3.95484 46.292 6.31156 47.6773H6.31326L6.35713 47.7024C6.3637 47.7058 6.36998 47.7093 6.37598 47.7129C6.37843 47.7144 6.38082 47.7158 6.38313 47.7173L6.38509 47.7184C7.55249 48.3869 8.89934 48.7661 10.3371 48.7661C11.7739 48.7661 13.1312 48.3771 14.2996 47.7081L14.3714 47.6669H14.3803Z" fill="#FFCF2D"/>
<path d="M10.3371 21.7432C14.9591 21.7432 18.706 20.0811 18.706 18.0308C18.706 15.9805 14.9591 14.3184 10.3371 14.3184C5.71513 14.3184 1.96826 15.9805 1.96826 18.0308C1.96826 20.0811 5.71513 21.7432 10.3371 21.7432Z" fill="white"/>
<path fill-rule="evenodd" clip-rule="evenodd" d="M2.81355 16.7641C2.42199 17.1748 2.2275 17.6022 2.2275 18.0302C2.2275 18.4583 2.42199 18.8857 2.81355 19.2964C3.20638 19.7084 3.7871 20.0912 4.52456 20.4183C5.99882 21.0723 8.05365 21.4834 10.3371 21.4834C12.6206 21.4834 14.6754 21.0723 16.1497 20.4183C16.8872 20.0912 17.4679 19.7084 17.8607 19.2964C18.2523 18.8857 18.4468 18.4583 18.4468 18.0302C18.4468 17.6022 18.2523 17.1748 17.8607 16.7641C17.4679 16.3521 16.8872 15.9693 16.1497 15.6422C14.6754 14.9882 12.6206 14.5771 10.3371 14.5771C8.05365 14.5771 5.99882 14.9882 4.52456 15.6422C3.7871 15.9693 3.20638 16.3521 2.81355 16.7641ZM4.3143 15.1682C5.86898 14.4786 7.99859 14.0586 10.3371 14.0586C12.6757 14.0586 14.8053 14.4786 16.36 15.1682C17.137 15.5129 17.7818 15.93 18.236 16.4063C18.6914 16.8839 18.9653 17.4331 18.9653 18.0302C18.9653 18.6273 18.6914 19.1766 18.236 19.6542C17.7818 20.1305 17.137 20.5476 16.36 20.8923C14.8053 21.5819 12.6757 22.0019 10.3371 22.0019C7.99859 22.0019 5.86898 21.5819 4.3143 20.8923C3.53729 20.5476 2.89242 20.1305 2.43827 19.6542C1.98286 19.1766 1.70898 18.6273 1.70898 18.0302C1.70898 17.4331 1.98286 16.8839 2.43827 16.4063C2.89242 15.93 3.53729 15.5129 4.3143 15.1682Z" fill="#FFCF2D"/>
<path d="M10.337 18.5899C11.0128 18.5899 11.5607 18.042 11.5607 17.3662C11.5607 16.6904 11.0128 16.1426 10.337 16.1426C9.66113 16.1426 9.11328 16.6904 9.11328 17.3662C9.11328 18.042 9.66113 18.5899 10.337 18.5899Z" fill="#FFCF2D"/>
<path d="M7.64052 43.5808C8.23617 43.5808 8.71906 43.0979 8.71906 42.5023C8.71906 41.9067 8.23617 41.4238 7.64052 41.4238C7.04487 41.4238 6.56201 41.9067 6.56201 42.5023C6.56201 43.0979 7.04487 43.5808 7.64052 43.5808Z" fill="white"/>
<path fill-rule="evenodd" clip-rule="evenodd" d="M7.64051 41.6845C7.18804 41.6845 6.82125 42.0513 6.82125 42.5037C6.82125 42.9561 7.18804 43.3229 7.64051 43.3229C8.09298 43.3229 8.45978 42.9561 8.45978 42.5037C8.45978 42.0513 8.09298 41.6845 7.64051 41.6845ZM6.30273 42.5037C6.30273 41.7649 6.90167 41.166 7.64051 41.166C8.37933 41.166 8.9783 41.7649 8.9783 42.5037C8.9783 43.2425 8.37934 43.8414 7.64051 43.8414C6.90167 43.8414 6.30273 43.2425 6.30273 42.5037Z" fill="#FFCF2D"/>
<path d="M14.1121 33.2953C14.6046 33.2953 15.0039 32.8961 15.0039 32.4035C15.0039 31.911 14.6046 31.5117 14.1121 31.5117C13.6195 31.5117 13.2202 31.911 13.2202 32.4035C13.2202 32.8961 13.6195 33.2953 14.1121 33.2953Z" fill="white"/>
<path d="M5.48366 39.9848C5.97622 39.9848 6.3755 39.5855 6.3755 39.093C6.3755 38.6005 5.97622 38.2012 5.48366 38.2012C4.9911 38.2012 4.5918 38.6005 4.5918 39.093C4.5918 39.5855 4.9911 39.9848 5.48366 39.9848Z" fill="#FFCF2D"/>
<path d="M18.2908 91.2293H2.38265C2.09228 91.2293 2.00932 90.8456 2.25821 90.7108L7.81674 88.6057C8.68785 88.2739 9.26859 87.4339 9.26859 86.5007V53.3585C9.26859 51.1601 8.12785 49.0965 6.23007 47.9869C7.4434 48.6817 8.84339 49.0758 10.3367 49.0758C11.8404 49.0758 13.2404 48.6713 14.4538 47.9766C12.5456 49.0758 11.4049 51.1497 11.4049 53.3482V86.4903C11.4049 87.4236 11.9856 88.2635 12.8567 88.5954L18.4152 90.7005C18.6641 90.8456 18.5812 91.2293 18.2908 91.2293Z" fill="white"/>
<path fill-rule="evenodd" clip-rule="evenodd" d="M12.8218 48.9671C12.037 49.207 11.2037 49.3373 10.337 49.3373C9.46953 49.3373 8.63233 49.2083 7.8428 48.9675C8.91807 50.1513 9.52813 51.721 9.52813 53.3608V86.503C9.52813 87.5441 8.88069 88.4803 7.90931 88.8503L7.90884 88.8505L2.37408 90.9466C2.3738 90.9469 2.3736 90.9471 2.37346 90.9472C2.37266 90.9481 2.37216 90.9489 2.37172 90.95C2.37063 90.9526 2.36961 90.9582 2.37115 90.9649C2.37196 90.9684 2.37304 90.9705 2.37372 90.9716C2.37405 90.9716 2.37447 90.9717 2.37497 90.9718C2.37649 90.9721 2.37909 90.9724 2.38292 90.9724H18.2911C18.2949 90.9724 18.2975 90.9721 18.299 90.9718C18.2994 90.9718 18.2997 90.9717 18.2999 90.9716C18.3007 90.9704 18.3019 90.9681 18.3027 90.9642C18.3045 90.9566 18.3036 90.949 18.3014 90.9434C18.3004 90.9409 18.299 90.9386 18.297 90.9363C18.2966 90.9357 18.296 90.9351 18.2954 90.9345L12.7652 88.8401L12.7647 88.8399C11.7933 88.4699 11.1459 87.5337 11.1459 86.4926V53.3505C11.1459 51.7179 11.7507 50.1489 12.8218 48.9671ZM10.337 48.8188C11.7934 48.8188 13.1492 48.4273 14.3252 47.7539L14.5835 48.2035C12.7596 49.2542 11.6644 51.2401 11.6644 53.3505V86.4926C11.6644 87.3179 12.1782 88.0615 12.9488 88.3552L12.9493 88.3554M7.72519 88.3656C7.72504 88.3657 7.72488 88.3657 7.72472 88.3658L2.15034 90.4769L2.135 90.4852C1.89595 90.6147 1.81702 90.8688 1.86581 91.081C1.91548 91.2971 2.10269 91.4909 2.38292 91.4909H18.2911C18.572 91.4909 18.759 91.2963 18.8084 91.0791C18.8567 90.8662 18.7783 90.6142 18.5462 90.4788L18.5275 90.468L12.9493 88.3554M7.72519 88.3656C8.49578 88.0719 9.00961 87.3282 9.00961 86.503V53.3608C9.00961 51.251 7.91474 49.2744 6.09948 48.213L6.35918 47.7643C7.53424 48.4371 8.88994 48.8188 10.337 48.8188" fill="#FFCF2D"/>
<path d="M4.44652 5.57449C5.22544 5.57449 5.85687 4.94308 5.85687 4.1642C5.85687 3.38531 5.22544 2.75391 4.44652 2.75391C3.66759 2.75391 3.03613 3.38531 3.03613 4.1642C3.03613 4.94308 3.66759 5.57449 4.44652 5.57449Z" fill="#FFCF2D"/>
<path d="M14.1114 7.84769C14.7873 7.84769 15.3351 7.29984 15.3351 6.62403C15.3351 5.94823 14.7873 5.40039 14.1114 5.40039C13.4356 5.40039 12.8877 5.94823 12.8877 6.62403C12.8877 7.29984 13.4356 7.84769 14.1114 7.84769Z" fill="white"/>
<path fill-rule="evenodd" clip-rule="evenodd" d="M14.1119 5.65912C13.5792 5.65912 13.1474 6.09089 13.1474 6.62351C13.1474 7.15613 13.5792 7.58791 14.1119 7.58791C14.6445 7.58791 15.0763 7.15613 15.0763 6.62351C15.0763 6.09089 14.6445 5.65912 14.1119 5.65912ZM12.6289 6.62351C12.6289 5.80453 13.2929 5.14062 14.1119 5.14062C14.9309 5.14062 15.5948 5.80453 15.5948 6.62351C15.5948 7.44248 14.9309 8.1064 14.1119 8.1064C13.2929 8.1064 12.6289 7.44248 12.6289 6.62351Z" fill="#FFCF2D"/>
<path d="M8.11842 12.6176C8.61097 12.6176 9.01027 12.2183 9.01027 11.7258C9.01027 11.2333 8.61097 10.834 8.11842 10.834C7.62586 10.834 7.22656 11.2333 7.22656 11.7258C7.22656 12.2183 7.62586 12.6176 8.11842 12.6176Z" fill="white"/>
<path fill-rule="evenodd" clip-rule="evenodd" d="M8.11743 11.0927C7.76806 11.0927 7.48483 11.3759 7.48483 11.7253C7.48483 12.0746 7.76806 12.3578 8.11743 12.3578C8.46681 12.3578 8.75004 12.0746 8.75004 11.7253C8.75004 11.3759 8.46681 11.0927 8.11743 11.0927ZM6.96631 11.7253C6.96631 11.0896 7.48169 10.5742 8.11743 10.5742C8.75317 10.5742 9.26855 11.0896 9.26855 11.7253C9.26855 12.361 8.75317 12.8763 8.11743 12.8763C7.48169 12.8763 6.96631 12.361 6.96631 11.7253Z" fill="#FFCF2D"/>
<path d="M7.65231 1.75964C8.05894 1.75964 8.3886 1.43 8.3886 1.02337C8.3886 0.616743 8.05894 0.287109 7.65231 0.287109C7.24567 0.287109 6.91602 0.616743 6.91602 1.02337C6.91602 1.43 7.24567 1.75964 7.65231 1.75964Z" fill="#FFCF2D"/>
<path d="M20.9969 64.5605V85.4351H4.3629C2.9629 85.4351 1.83252 84.3048 1.83252 82.9049V81.1938C1.83252 80.4265 2.17474 79.742 2.714 79.2754C2.17474 78.8088 1.83252 78.1243 1.83252 77.357V75.6459C1.83252 74.9719 2.10215 74.3497 2.53771 73.9038C2.10215 73.4475 1.83252 72.8357 1.83252 72.1617V70.4506C1.83252 69.7558 2.11253 69.1233 2.56883 68.6566C2.11253 68.2004 1.83252 67.5678 1.83252 66.873V64.5709H20.9969V64.5605Z" fill="#E57281"/>
<path fill-rule="evenodd" clip-rule="evenodd" d="M2.12254 76.9512C2.26572 76.9512 2.3818 77.0672 2.3818 77.2104C2.3818 78.6538 3.55165 79.8236 4.99512 79.8236H18.4558C19.8993 79.8236 21.0692 78.6538 21.0692 77.2104C21.0692 77.0672 21.1852 76.9512 21.3284 76.9512C21.4716 76.9512 21.5877 77.0672 21.5877 77.2104C21.5877 78.9402 20.1857 80.3421 18.4558 80.3421H4.99512C3.26527 80.3421 1.86328 78.9402 1.86328 77.2104C1.86328 77.0672 1.97936 76.9512 2.12254 76.9512Z" fill="#9A3B82"/>
<path fill-rule="evenodd" clip-rule="evenodd" d="M2.12254 71.7773C2.26572 71.7773 2.3818 71.8934 2.3818 72.0366C2.3818 73.48 3.55164 74.6498 4.99512 74.6498H18.4558C19.8993 74.6498 21.0692 73.48 21.0692 72.0366C21.0692 71.8934 21.1852 71.7773 21.3284 71.7773C21.4716 71.7773 21.5877 71.8934 21.5877 72.0366C21.5877 73.7664 20.1857 75.1683 18.4558 75.1683H4.99512C3.26527 75.1683 1.86328 73.7664 1.86328 72.0366C1.86328 71.8934 1.97936 71.7773 2.12254 71.7773Z" fill="#9A3B82"/>
<path fill-rule="evenodd" clip-rule="evenodd" d="M2.12254 66.6035C2.26572 66.6035 2.3818 66.7196 2.3818 66.8628C2.3818 68.3062 3.55164 69.476 4.99512 69.476H18.4558C19.8993 69.476 21.0692 68.3062 21.0692 66.8628C21.0692 66.7196 21.1852 66.6035 21.3284 66.6035C21.4716 66.6035 21.5877 66.7196 21.5877 66.8628C21.5877 68.5925 20.1857 69.9945 18.4558 69.9945H4.99512C3.26527 69.9945 1.86328 68.5925 1.86328 66.8628C1.86328 66.7196 1.97936 66.6035 2.12254 66.6035Z" fill="#9A3B82"/>
<path fill-rule="evenodd" clip-rule="evenodd" d="M21.3284 62.7246C21.4716 62.7246 21.5877 62.8407 21.5877 62.9839V82.3859C21.5877 84.1157 20.1857 85.5176 18.4558 85.5176H4.86033C4.71715 85.5176 4.60107 85.4015 4.60107 85.2583C4.60107 85.1152 4.71715 84.9991 4.86033 84.9991H18.4558C19.8993 84.9991 21.0692 83.8293 21.0692 82.3859V62.9839C21.0692 62.8407 21.1852 62.7246 21.3284 62.7246Z" fill="#9A3B82"/>
<path fill-rule="evenodd" clip-rule="evenodd" d="M18.2685 61.5009C17.4161 61.5009 16.7233 62.1937 16.7233 63.046C16.7233 64.0303 15.9216 64.8193 14.9499 64.8193H7.2344C6.63492 64.8193 6.14551 64.3299 6.14551 63.7304C6.14551 63.131 6.63492 62.6416 7.2344 62.6416H8.61366C8.75685 62.6416 8.87292 62.7577 8.87292 62.9008C8.87292 63.044 8.75685 63.1601 8.61366 63.1601H7.2344C6.92129 63.1601 6.66403 63.4173 6.66403 63.7304C6.66403 64.0435 6.92129 64.3008 7.2344 64.3008H14.9499C15.6375 64.3008 16.2048 63.7416 16.2048 63.046C16.2048 61.9073 17.1297 60.9824 18.2685 60.9824H19.5233C20.662 60.9824 21.587 61.9073 21.587 63.046V66.4058C21.587 66.549 21.4709 66.6651 21.3277 66.6651C21.1845 66.6651 21.0685 66.549 21.0685 66.4058V63.046C21.0685 62.1937 20.3757 61.5009 19.5233 61.5009H18.2685Z" fill="#9A3B82"/>
</svg>
