<svg width="97" height="162" viewBox="0 0 97 162" fill="none" xmlns="http://www.w3.org/2000/svg">
<path d="M83.1823 118.095V162.001H33.166L39.5749 114.32C39.5749 116.249 49.3334 118.655 61.3734 119.692C73.4134 120.739 83.1823 120.024 83.1823 118.095Z" fill="#66B0F0"/>
<path d="M82.9544 116.965C82.9544 118.894 73.2788 119.609 61.3529 118.562C49.427 117.515 39.7515 115.109 39.7515 113.19C39.7515 111.262 49.427 110.546 61.3529 111.594C73.2892 112.631 82.9544 115.036 82.9544 116.965Z" fill="#3FB1B5"/>
<path fill-rule="evenodd" clip-rule="evenodd" d="M92.7389 21.8459L89.7222 19.8934L90.0603 19.3711L93.0995 21.3381L93.1099 21.3461C93.9916 22.0286 94.295 23.2588 94.1979 24.7685C94.1 26.2911 93.5914 28.1844 92.739 30.3147C91.0326 34.5794 87.9201 39.862 83.8113 45.1564C79.7024 50.4561 75.3604 54.7849 71.6548 57.4986C69.8038 58.8542 68.0967 59.8178 66.6463 60.2918C65.2081 60.7619 63.9409 60.7748 63.0595 60.0926L63.0474 60.0832L61.543 58.6624L61.9702 58.2101L63.4519 59.6095C64.0852 60.0909 65.0866 60.147 66.453 59.7004C67.8154 59.2551 69.4619 58.3333 71.2872 56.9967C74.9341 54.3259 79.2358 50.0424 83.3195 44.7752L83.3196 44.7751C87.4033 39.5131 90.4819 34.2807 92.1613 30.0836C93.0019 27.983 93.485 26.1587 93.577 24.7285C93.6693 23.293 93.3646 22.3376 92.7389 21.8459Z" fill="#66B0F0"/>
<path d="M47.8398 68.827L82.2176 37.3648L94.2368 0.769531L57.5465 34.1087L47.8398 68.827Z" fill="#66B0F0"/>
<path fill-rule="evenodd" clip-rule="evenodd" d="M95.8061 0.931622C95.9694 0.985216 96.0583 1.161 96.0047 1.32424L83.7734 38.5777L46.297 72.874C46.1703 72.99 45.9735 72.9813 45.8575 72.8545C45.7415 72.7278 45.7502 72.531 45.877 72.415L83.233 38.2287L95.4135 1.13016C95.4671 0.966914 95.6429 0.878028 95.8061 0.931622Z" fill="#FE5244"/>
<path fill-rule="evenodd" clip-rule="evenodd" d="M33.013 68.2606L65.6587 37.0371L66.0887 37.4867L33.4428 68.7104L33.4426 68.7107C31.6355 70.435 28.682 68.8048 29.1898 66.3487L30.1023 61.9209L30.1024 61.9206C30.4595 60.1978 28.5041 58.9393 27.0852 59.9744L27.085 59.9746L16.2998 67.8246L15.9336 67.3216L26.7185 59.4718C26.7186 59.4717 26.7187 59.4716 26.7188 59.4715M30.7117 62.0468C31.1842 59.767 28.5977 58.1012 26.7188 59.4715L30.7117 62.0468ZM30.7117 62.0468L29.7992 66.4744L29.7991 66.4746C29.4151 68.3322 31.6464 69.5641 33.0127 68.2608L33.013 68.2606" fill="#FE5244"/>
<path d="M7.33306 78.7512C6.36862 79.5601 5.40416 80.3067 4.47083 80.96C3.69306 80.4726 2.9775 79.8608 2.34491 79.1142C1.72269 78.3675 1.23529 77.5587 0.893066 76.7084C1.70195 75.8995 2.5938 75.0803 3.55824 74.2611C8.38045 70.2065 13.1301 67.9147 14.1775 69.1591C15.2145 70.4035 12.1553 74.6966 7.33306 78.7512Z" fill="#FFCF2D"/>
<path fill-rule="evenodd" clip-rule="evenodd" d="M15.1114 67.3859C14.5902 67.3859 14.1676 67.8083 14.1676 68.3295C14.1676 68.8507 14.5902 69.2732 15.1114 69.2732C15.6326 69.2732 16.0551 68.8507 16.0551 68.3295C16.0551 67.8083 15.6326 67.3859 15.1114 67.3859ZM13.5454 68.3295C13.5454 67.4647 14.2465 66.7637 15.1114 66.7637C15.9762 66.7637 16.6773 67.4647 16.6773 68.3295C16.6773 69.1943 15.9762 69.8953 15.1114 69.8953C14.2465 69.8953 13.5454 69.1943 13.5454 68.3295Z" fill="#FE5244"/>
<path d="M67.4194 85.0457V118.955C65.5009 118.872 63.458 118.748 61.3528 118.561C53.5854 117.887 46.7825 116.622 42.9765 115.295L43.5469 111.541L45.455 98.9413H42.9869C39.4714 98.9413 36.6299 96.1 36.6299 92.5846V80.0993C36.6299 77.6312 37.5217 75.2565 39.1499 73.4003L47.2698 64.1193C47.7987 63.5179 48.7943 63.8912 48.7943 64.6896V77.3098C48.7943 78.8238 48.255 80.2859 47.2698 81.437L46.5439 82.2873H55.3587C56.6343 82.2873 57.381 80.8666 56.6654 79.8089C55.5765 78.2223 54.1454 75.9617 52.7869 73.3485C50.0802 68.1739 54.778 65.2807 54.778 65.2807L65.532 79.2282C66.7558 80.9185 67.4194 82.9613 67.4194 85.0457Z" fill="#FFCF2D"/>
<path fill-rule="evenodd" clip-rule="evenodd" d="M48.7948 63.7559C48.938 63.7559 49.0541 63.8719 49.0541 64.0151V77.3093C49.0541 78.8849 48.4928 80.4068 47.4675 81.6048L47.4673 81.6051M47.4673 81.6051L46.7416 82.4552C46.6486 82.5641 46.485 82.577 46.3761 82.484C46.2672 82.3911 46.2543 82.2274 46.3472 82.1185L47.0732 81.2682L47.0734 81.268C48.0183 80.1639 48.5355 78.7616 48.5355 77.3093V64.0151C48.5355 63.8719 48.6516 63.7559 48.7948 63.7559" fill="white"/>
<path fill-rule="evenodd" clip-rule="evenodd" d="M46.716 82.0832C46.8229 82.1785 46.8324 82.3423 46.7371 82.4493L40.9089 88.9926C40.8137 89.0995 40.6498 89.109 40.5429 89.0138C40.436 88.9185 40.4265 88.7547 40.5217 88.6477L46.3499 82.1044C46.4451 81.9975 46.609 81.988 46.716 82.0832Z" fill="white"/>
<path fill-rule="evenodd" clip-rule="evenodd" d="M48.7937 71.2734C48.9369 71.2734 49.053 71.3895 49.053 71.5327C49.053 73.1083 48.4918 74.6302 47.4665 75.8282C47.4664 75.8283 47.4663 75.8284 47.4662 75.8285L46.7388 76.6806L40.9192 83.2156C40.824 83.3226 40.6601 83.3321 40.5532 83.2369C40.4462 83.1416 40.4367 82.9778 40.532 82.8708L46.3479 76.3398L47.0723 75.4913C48.0172 74.3873 48.5345 72.985 48.5345 71.5327C48.5345 71.3895 48.6505 71.2734 48.7937 71.2734Z" fill="white"/>
<path fill-rule="evenodd" clip-rule="evenodd" d="M48.7947 65.5078C48.9379 65.5078 49.054 65.6239 49.054 65.7671C49.054 67.3427 48.4928 68.8645 47.4674 70.0626C47.4674 70.0627 47.4673 70.0628 47.4672 70.0629L46.7398 70.915L40.9202 77.4501C40.8249 77.557 40.6611 77.5665 40.5541 77.4713C40.4472 77.3761 40.4377 77.2122 40.5329 77.1053L46.3489 70.5742L47.0733 69.7257C48.0182 68.6217 48.5355 67.2193 48.5355 65.7671C48.5355 65.6239 48.6515 65.5078 48.7947 65.5078Z" fill="white"/>
<path fill-rule="evenodd" clip-rule="evenodd" d="M45.1948 99.2827C45.1948 99.1395 45.3109 99.0234 45.4541 99.0234H49.9237C50.0669 99.0234 50.1829 99.1395 50.1829 99.2827C50.1829 99.4259 50.0669 99.5419 49.9237 99.5419H45.4541C45.3109 99.5419 45.1948 99.4259 45.1948 99.2827Z" fill="white"/>
<path d="M67.4195 112.255V118.954C65.501 118.871 63.4581 118.747 61.3529 118.56C53.5855 117.886 46.7825 116.621 42.9766 115.294L43.5469 111.54C47.4462 110.969 53.9692 110.938 61.3632 111.581C63.4581 111.778 65.4907 111.996 67.4195 112.255Z" fill="#FE5244"/>
</svg>
