<svg width="92" height="75" viewBox="0 0 92 75" fill="none" xmlns="http://www.w3.org/2000/svg">
<path fill-rule="evenodd" clip-rule="evenodd" d="M61.8335 38.6303C61.4477 33.7542 55.9783 31.0837 51.893 33.7841L48.6058 35.9616L48.2622 35.4429L51.5499 33.265C56.0305 30.3034 62.0306 33.2327 62.4538 38.5813L63.1693 47.6341C63.1693 47.6341 63.1693 47.6341 63.1693 47.6341C63.5453 52.3717 68.7578 55.0718 72.8427 52.6486L74.9164 51.4148L75.2346 51.9495L73.1605 53.1836L73.1601 53.1838C68.6791 55.8419 62.9613 52.88 62.5491 47.6833L61.8335 38.6303Z" fill="#FFCF2D"/>
<path d="M0.657227 2.07227L42.8957 26.5866L64.1652 74.3399L39.7638 57.9037L13.2468 26.8355L0.657227 2.07227Z" fill="#9A3B82"/>
<path fill-rule="evenodd" clip-rule="evenodd" d="M43.659 25.6851L0.615723 0.692356L0.928171 0.154297L44.1455 25.2481L65.9123 74.0991L65.3439 74.3523L43.659 25.6851Z" fill="#FFCF2D"/>
<path d="M39.3236 58.9581C41.2973 57.2919 36.862 48.7929 29.4171 39.975C21.9723 31.1572 14.337 25.3597 12.3633 27.026C10.3896 28.6922 14.8248 37.1912 22.2697 46.0091C29.7146 54.8269 37.3499 60.6244 39.3236 58.9581Z" fill="white"/>
<path d="M38.124 59.4667C40.0584 57.8337 35.708 49.5 28.4072 40.8528C21.1064 32.2057 13.6198 26.5196 11.6855 28.1526C9.75118 29.7856 14.1016 38.1193 21.4024 46.7664C28.7032 55.4136 36.1897 61.0997 38.124 59.4667Z" fill="white"/>
<path fill-rule="evenodd" clip-rule="evenodd" d="M13.3102 34.7108C15.0575 38.0579 17.9582 42.2873 21.6001 46.6008C25.242 50.9143 28.9253 54.483 31.9321 56.7667C33.4372 57.9099 34.7614 58.7222 35.8185 59.1483C36.3473 59.3615 36.7961 59.4726 37.1596 59.487C37.521 59.5014 37.7788 59.4201 37.9564 59.2702C38.1341 59.1202 38.2574 58.8798 38.3039 58.521C38.3505 58.1603 38.3163 57.6992 38.1948 57.1422C37.952 56.0286 37.3732 54.5871 36.4986 52.9116C34.7513 49.5645 31.8506 45.3351 28.2087 41.0216C24.5668 36.7081 20.8836 33.1394 17.8767 30.8556C16.3716 29.7125 15.0474 28.9002 13.9903 28.4741C13.4615 28.2609 13.0127 28.1498 12.6492 28.1354C12.2878 28.121 12.03 28.2022 11.8524 28.3522C11.6747 28.5022 11.5514 28.7426 11.505 29.1014C11.4583 29.4621 11.4925 29.9232 11.614 30.4802C11.8568 31.5937 12.4356 33.0353 13.3102 34.7108ZM10.9907 29.0348C11.0481 28.5915 11.2119 28.2143 11.5179 27.956C11.8238 27.6978 12.2232 27.5995 12.6699 27.6173C13.1146 27.635 13.625 27.7678 14.1842 27.9932C15.303 28.4442 16.6694 29.2876 18.1904 30.4428C21.2356 32.7556 24.946 36.3535 28.6049 40.6872C32.2638 45.0208 35.1887 49.2819 36.9582 52.6717C37.842 54.3647 38.4444 55.8531 38.7014 57.0317C38.8299 57.6207 38.8752 58.1461 38.8181 58.5875C38.7607 59.0309 38.5969 59.4081 38.2909 59.6664C37.985 59.9246 37.5856 60.0229 37.1389 60.0051C36.6942 59.9874 36.1838 59.8546 35.6246 59.6292C34.5058 59.1782 33.1394 58.3348 31.6185 57.1796C28.5732 54.8668 24.8628 51.2689 21.2039 46.9352C17.545 42.6016 14.6201 38.3405 12.8506 34.9507C11.9668 33.2577 11.3644 31.7692 11.1074 30.5907C10.9789 30.0017 10.9336 29.4763 10.9907 29.0348Z" fill="#FFCF2D"/>
<path d="M43.2698 55.6023L39.2461 58.9932C39.9928 58.3606 39.8268 56.7637 38.9246 54.5342C37.4417 50.8632 33.9676 45.502 29.3424 40.006C24.7069 34.5203 19.9987 30.1961 16.6284 28.1221C14.5854 26.857 13.0299 26.4214 12.2832 27.054L16.3069 23.6631C18.2772 21.9935 26.2624 27.4481 33.7083 36.2728C41.1542 45.0976 45.2505 53.9431 43.2698 55.6023Z" fill="#FFCF2D"/>
<path d="M86.2545 42.6289C87.3953 42.0793 88.5049 41.5919 89.573 41.1875C90.2056 41.8512 90.7553 42.6289 91.1804 43.5C91.6056 44.371 91.8752 45.2836 91.9997 46.1858C91.0145 46.7665 89.9464 47.3472 88.816 47.8968C83.1434 50.6448 77.979 51.6922 77.2738 50.2404C76.5583 48.7782 80.5819 45.3769 86.2545 42.6289Z" fill="#FFCF2D"/>
<path fill-rule="evenodd" clip-rule="evenodd" d="M76.2373 50.0109C75.7161 50.0109 75.2936 50.4333 75.2936 50.9545C75.2936 51.4757 75.7161 51.8982 76.2373 51.8982C76.7585 51.8982 77.181 51.4757 77.181 50.9545C77.181 50.4333 76.7585 50.0109 76.2373 50.0109ZM74.6714 50.9545C74.6714 50.0897 75.3725 49.3887 76.2373 49.3887C77.1021 49.3887 77.8032 50.0897 77.8032 50.9545C77.8032 51.8193 77.1021 52.5203 76.2373 52.5203C75.3725 52.5203 74.6714 51.8193 74.6714 50.9545Z" fill="#9A3B82"/>
</svg>
