<svg width="73" height="125" viewBox="0 0 73 125" fill="none" xmlns="http://www.w3.org/2000/svg">
<path d="M70.0032 90.7904V125.001H18.5352L28.5633 72.4668C28.2418 74.5408 34.6611 78.4295 43.4447 82.3285C46.5973 83.7285 50.1129 85.118 53.8669 86.435C59.9232 88.5712 65.5025 90.023 70.0032 90.7904C69.9928 90.7904 70.0032 90.7904 70.0032 90.7904Z" fill="#9A3B82"/>
<path d="M70.0031 80.5027V89.6593C65.5023 88.892 59.9334 87.4505 53.8564 85.3143C39.535 80.285 28.5113 74.0734 29.1335 71.2839C29.1439 71.2424 29.1542 71.201 29.1646 71.1699C30.1291 68.4426 42.812 70.3299 57.3305 75.4215C61.9971 77.0599 66.2075 78.7502 69.7438 80.3783C69.8268 80.4198 69.9097 80.4613 70.0031 80.5027Z" fill="#FFCF2D"/>
<path d="M62.94 1.23633C57.9208 1.23633 53.8556 5.30132 53.8556 10.31V35.1769C53.8556 40.1856 49.7904 44.2506 44.7815 44.2506H8.40234C13.4216 44.2506 17.4764 40.1856 17.4764 35.1769V10.31C17.4764 5.29095 21.5416 1.23633 26.5505 1.23633H62.94Z" fill="white"/>
<path fill-rule="evenodd" clip-rule="evenodd" d="M26.5505 1.49506C21.6846 1.49506 17.7357 5.4338 17.7357 10.3095V35.1764C17.7357 39.2515 15.126 42.7194 11.48 43.9908H44.7815C49.6472 43.9908 53.5963 40.0419 53.5963 35.1764V10.3095C53.5963 6.23412 56.2127 2.76645 59.8613 1.49506H26.5505ZM62.94 0.976562H26.5505C21.3986 0.976562 17.2171 5.14706 17.2171 10.3095V35.1764C17.2171 40.0421 13.2782 43.9908 8.40234 43.9908V44.5093H44.7815C49.9336 44.5093 54.1149 40.3282 54.1149 35.1764V10.3095C54.1149 5.44417 58.0638 1.49506 62.94 1.49506V0.976562Z" fill="#FFCF2D"/>
<path d="M47.0321 14.1055H23.8647V35.6022H47.0321V14.1055Z" fill="white"/>
<path fill-rule="evenodd" clip-rule="evenodd" d="M23.6055 13.8457H47.2914V35.8609H23.6055V13.8457ZM24.124 14.3642V35.3424H46.7729V14.3642H24.124Z" fill="#FFCF2D"/>
<path fill-rule="evenodd" clip-rule="evenodd" d="M23.8647 16.916H47.0218V17.4345H23.8647V16.916Z" fill="#FFCF2D"/>
<path fill-rule="evenodd" clip-rule="evenodd" d="M23.8647 19.9844H47.0218V20.5029H23.8647V19.9844Z" fill="#FFCF2D"/>
<path fill-rule="evenodd" clip-rule="evenodd" d="M23.8647 23.0645H47.0218V23.5829H23.8647V23.0645Z" fill="#FFCF2D"/>
<path fill-rule="evenodd" clip-rule="evenodd" d="M23.8647 26.1348H47.0218V26.6532H23.8647V26.1348Z" fill="#FFCF2D"/>
<path fill-rule="evenodd" clip-rule="evenodd" d="M23.8647 29.2148H47.0218V29.7333H23.8647V29.2148Z" fill="#FFCF2D"/>
<path fill-rule="evenodd" clip-rule="evenodd" d="M23.8647 32.2832H47.0218V32.8017H23.8647V32.2832Z" fill="#FFCF2D"/>
<path d="M53.8564 10.31C53.8564 5.32206 57.8801 1.27781 62.8475 1.23633C67.8253 1.27781 71.8386 5.32206 71.8386 10.31H53.8564Z" fill="#66B0F0"/>
<path fill-rule="evenodd" clip-rule="evenodd" d="M62.8475 0.976562L62.8497 0.976581C67.9699 1.01925 72.0979 5.17932 72.0979 10.3095V10.5687H53.5972V10.3095C53.5972 5.17913 57.7357 1.01925 62.8453 0.976581L62.8475 0.976562ZM62.8475 1.49508C58.1097 1.53578 54.2559 5.32535 54.1194 10.0502H71.5756C71.4395 5.32516 67.5953 1.53578 62.8475 1.49508Z" fill="#FFCF2D"/>
<path d="M44.8237 44.4793C44.8133 44.4793 44.7925 44.4793 44.7822 44.4793H8.53773C8.51699 44.4793 8.49627 44.4793 8.47553 44.4793C4.75256 44.4274 1.56885 42.1253 0.220703 38.8691H36.5377C37.8962 42.1253 41.08 44.4274 44.8237 44.4793Z" fill="#FFCF2D"/>
<path d="M25.3796 11.6352H21.1899V8.27539H23.1603V10.142C23.1603 10.1834 23.1811 10.2145 23.2018 10.2249L23.2122 10.2353L25.3796 11.6352Z" fill="#FE5244"/>
<path d="M27.0074 9.4381V9.884C27.0074 9.96696 26.9971 10.0499 26.9971 10.1329C26.9971 10.1536 26.9867 10.1847 26.9867 10.2055C26.9763 10.2469 26.9763 10.2884 26.9659 10.3299C26.8519 10.9002 26.5097 11.3669 26.0845 11.5431C26.0534 11.5535 26.0223 11.5639 25.9911 11.5743C25.9393 11.595 25.8771 11.6054 25.8252 11.6157C25.8045 11.6157 25.7837 11.6261 25.763 11.6261L23.3882 10.081C23.4089 9.71808 23.6371 9.42773 23.9067 9.42773H27.0074V9.4381Z" fill="#FE5244"/>
<path d="M50.1442 8.27539V11.6352H45.9546L48.1116 10.2353L48.122 10.2249C48.1324 10.2145 48.1324 10.2145 48.1428 10.2145C48.1428 10.2042 48.1531 10.2042 48.1531 10.1938C48.1531 10.1938 48.1531 10.1834 48.1635 10.1834C48.1635 10.1731 48.1635 10.1731 48.1738 10.1731C48.1738 10.1731 48.1738 10.1731 48.1738 10.1627C48.1738 10.1523 48.1738 10.1523 48.1738 10.142V8.27539H50.1442Z" fill="#FE5244"/>
<path d="M47.9655 10.0924L45.5907 11.6375C45.5284 11.6272 45.4662 11.6168 45.404 11.6064C45.3832 11.5961 45.3625 11.596 45.3418 11.5857C45.3107 11.5753 45.2899 11.5649 45.2588 11.5546C45.2381 11.5442 45.207 11.5338 45.1862 11.5235C44.8647 11.3472 44.5951 11.005 44.4603 10.5798C44.4395 10.5176 44.4188 10.4554 44.4084 10.3931C44.3981 10.3724 44.398 10.3413 44.3877 10.3102C44.3669 10.1754 44.3462 10.0406 44.3462 9.8954V9.44949H47.4573C47.7166 9.43912 47.9447 9.72948 47.9655 10.0924Z" fill="#FE5244"/>
<path d="M47.9665 6.57625V9.50056C47.9458 9.47982 47.925 9.44872 47.9043 9.42798C47.8628 9.3865 47.8213 9.35539 47.7798 9.32428C47.6761 9.26206 47.562 9.22058 47.448 9.22058H23.8969C23.7725 9.22058 23.6584 9.26206 23.5651 9.32428C23.5236 9.35539 23.4821 9.3865 23.4406 9.42798C23.4199 9.44872 23.3992 9.46946 23.3784 9.50056V6.57625C23.3784 6.1822 23.6066 5.87109 23.8969 5.87109H47.448C47.728 5.87109 47.9665 6.19257 47.9665 6.57625Z" fill="#FE5244"/>
<path d="M70.0031 49.0106V89.6604H69.9927C65.492 88.8931 59.9231 87.4516 53.846 85.3154C50.092 83.9985 46.5764 82.5986 43.4238 81.209L45.1142 71.7724L47.9868 55.751C38.9749 52.9304 37.5127 44.2612 37.5127 44.2612H44.7616C49.7808 44.2612 53.8357 40.1962 53.8357 35.1875V32.201H49.1794C45.9127 32.201 43.2579 28.9863 43.2579 25.7198V24.6621H53.6075C55.526 24.6621 57.3305 25.5643 58.4816 27.099L66.052 37.2096C68.6238 40.611 70.0031 44.7485 70.0031 49.0106Z" fill="#A0505A"/>
<path d="M70.0031 80.5029V89.6596H69.9927C65.492 88.8922 59.9231 87.4508 53.8461 85.3146C50.092 83.9976 46.5764 82.5977 43.4238 81.2081L45.1142 71.7715C48.8475 72.684 52.9957 73.918 57.3098 75.432C61.9764 77.0705 66.1868 78.7608 69.7127 80.3889C69.8268 80.42 69.9097 80.4615 70.0031 80.5029Z" fill="#73325A"/>
<path d="M54.3126 32.201H49.314C46.0474 32.201 43.3926 28.9863 43.3926 25.7198V24.6621H54.3126V32.201Z" fill="#A0505A"/>
<path fill-rule="evenodd" clip-rule="evenodd" d="M51.0796 42.5438C51.0797 42.5438 51.0798 42.5439 51.1709 42.3012C51.2621 42.0585 51.2622 42.0585 51.2624 42.0586L51.2629 42.0588L51.2644 42.0594L51.2694 42.0613C51.2736 42.0629 51.2795 42.0652 51.287 42.0682C51.3021 42.0741 51.3239 42.0829 51.3519 42.0946C51.4078 42.1179 51.4887 42.1529 51.5912 42.2005C51.796 42.2957 52.0872 42.4414 52.4377 42.6453C53.1384 43.053 54.0777 43.6944 55.0374 44.6317C56.9601 46.5093 58.9586 49.5688 59.2903 54.2913L58.773 54.3277C58.4514 49.7484 56.5195 46.8037 54.6751 45.0026C53.7514 44.1005 52.848 43.4839 52.1769 43.0935C51.8415 42.8983 51.5645 42.7599 51.3726 42.6707C51.2767 42.6262 51.2021 42.5939 51.1522 42.5731C51.1272 42.5627 51.1084 42.5551 51.0962 42.5503C51.0901 42.5479 51.0857 42.5461 51.0829 42.5451L51.0801 42.544L51.0796 42.5438ZM51.0796 42.5438C51.0796 42.5438 51.0796 42.5438 51.0796 42.5438L51.0796 42.5438Z" fill="#73325A"/>
<path fill-rule="evenodd" clip-rule="evenodd" d="M52.9125 56.2274H48.0073V55.709H52.9125V56.2274Z" fill="#73325A"/>
</svg>
